<svg width="162" height="55" viewBox="0 0 162 55" fill="none" xmlns="http://www.w3.org/2000/svg">
<path d="M149.099 0.83416H12.908C12.4115 0.83416 11.921 0.83416 11.4259 0.83686C11.0115 0.83956 10.6003 0.847403 10.1819 0.854005C9.2728 0.864672 8.36589 0.944422 7.46899 1.09256C6.57336 1.24393 5.70578 1.52929 4.8956 1.93901C4.08641 2.35219 3.34704 2.88908 2.70429 3.5302C2.05817 4.16951 1.51958 4.90847 1.10923 5.71866C0.697744 6.52724 0.412419 7.39371 0.263109 8.28813C0.112379 9.18143 0.0312704 10.085 0.0205099 10.9908C0.00794675 11.4047 0.00662003 11.82 0 12.234V43.4381C0.00662003 43.8573 0.00794675 44.2634 0.0205099 44.6827C0.0312737 45.5884 0.112383 46.492 0.263109 47.3852C0.412007 48.2802 0.697348 49.1472 1.10923 49.956C1.51939 50.7636 2.05806 51.4996 2.70429 52.1353C3.3446 52.7793 4.08445 53.3166 4.8956 53.7266C5.70577 54.1374 6.57326 54.4245 7.46899 54.5782C8.36604 54.7251 9.27286 54.8049 10.1819 54.8168C10.6003 54.826 11.0115 54.8313 11.4259 54.8313C11.921 54.834 12.4115 54.834 12.908 54.834H149.099C149.586 54.834 150.08 54.834 150.567 54.8313C150.979 54.8313 151.402 54.826 151.815 54.8168C152.722 54.8055 153.627 54.7257 154.522 54.5782C155.421 54.4234 156.292 54.1364 157.106 53.7266C157.916 53.3163 158.655 52.7791 159.295 52.1353C159.94 51.4971 160.48 50.7617 160.895 49.956C161.304 49.1466 161.586 48.2797 161.733 47.3852C161.884 46.4919 161.968 45.5885 161.984 44.6827C161.989 44.2634 161.989 43.8573 161.989 43.4381C162 42.9477 162 42.4599 162 41.9615V13.7079C162 13.2135 162 12.7231 161.989 12.234C161.989 11.82 161.989 11.4047 161.984 10.9908C161.968 10.0849 161.884 9.1815 161.733 8.28808C161.586 7.39417 161.303 6.52777 160.895 5.71861C160.059 4.09466 158.734 2.77279 157.106 1.93889C156.292 1.53017 155.421 1.24488 154.522 1.09244C153.627 0.943648 152.722 0.86387 151.815 0.853816C151.402 0.847228 150.979 0.839317 150.567 0.836684C150.08 0.833984 149.586 0.833984 149.099 0.833984V0.83416Z" fill="#A6A6A6"/>
<path d="M11.4336 53.6543C11.0212 53.6543 10.6187 53.6491 10.2094 53.6399C9.36165 53.6289 8.51586 53.5553 7.67899 53.4197C6.89866 53.2857 6.14272 53.0364 5.43612 52.68C4.73599 52.3266 4.09742 51.8632 3.54487 51.3076C2.98432 50.7585 2.51764 50.1217 2.16332 49.4223C1.80509 48.7184 1.55717 47.9639 1.42821 47.1851C1.28894 46.3483 1.21359 45.5021 1.2028 44.6539C1.19422 44.3692 1.18298 43.4212 1.18298 43.4212V12.2354C1.18298 12.2354 1.19495 11.302 1.20287 11.0278C1.21319 10.1809 1.28811 9.33607 1.42696 8.50053C1.55617 7.71958 1.80427 6.9629 2.16269 6.25669C2.51571 5.55782 2.97981 4.92051 3.53698 4.36946C4.09353 3.81318 4.73414 3.34741 5.43545 2.98913C6.14043 2.63392 6.89494 2.38638 7.6737 2.25481C8.51332 2.11787 9.36204 2.04384 10.2127 2.03333L11.4343 2.01685H150.561L151.797 2.03399C152.64 2.04398 153.481 2.11735 154.313 2.25349C155.1 2.38671 155.862 2.63598 156.575 2.99308C157.98 3.71513 159.124 4.85746 159.845 6.25999C160.197 6.96132 160.442 7.71183 160.569 8.48603C160.71 9.32843 160.788 10.1799 160.805 11.0338C160.809 11.4161 160.809 11.8268 160.809 12.2354C160.819 12.7417 160.819 13.2236 160.819 13.7094V41.9631C160.819 42.4535 160.819 42.9321 160.809 43.4146C160.809 43.8536 160.809 44.2558 160.803 44.6697C160.787 45.5083 160.71 46.3446 160.572 47.1719C160.446 47.9563 160.199 48.7167 159.841 49.4264C159.484 50.1182 159.02 50.7495 158.466 51.2971C157.913 51.8557 157.273 52.3218 156.571 52.6775C155.86 53.0366 155.099 53.2868 154.313 53.4197C153.477 53.556 152.631 53.6296 151.783 53.6399C151.386 53.6491 150.971 53.6543 150.568 53.6543L149.1 53.657L11.4336 53.6543Z" fill="black"/>
<path d="M33.5332 28.2397C33.5477 27.1129 33.8478 26.0081 34.4056 25.0281C34.9634 24.048 35.7608 23.2246 36.7234 22.6344C36.1119 21.7634 35.3051 21.0466 34.3672 20.541C33.4292 20.0353 32.386 19.7547 31.3202 19.7215C29.0469 19.4835 26.843 21.078 25.6846 21.078C24.5037 21.078 22.7201 19.7451 20.7994 19.7845C19.5571 19.8245 18.3463 20.1848 17.2851 20.8302C16.2239 21.4756 15.3485 22.3841 14.744 23.4672C12.1258 27.9876 14.0788 34.6311 16.5868 38.2851C17.8416 40.0743 19.3082 42.073 21.2271 42.0021C23.1049 41.9244 23.8062 40.808 26.0728 40.808C28.3185 40.808 28.9764 42.0021 30.9343 41.957C32.9492 41.9244 34.2188 40.1598 35.4296 38.3536C36.3312 37.0787 37.0249 35.6697 37.4852 34.1787C36.3146 33.685 35.3156 32.8585 34.6128 31.8024C33.91 30.7463 33.5345 29.5072 33.5332 28.2397Z" fill="white"/>
<path d="M29.8353 17.3188C30.9339 16.0036 31.4752 14.3132 31.3441 12.6064C29.6657 12.7822 28.1152 13.5822 27.0018 14.8469C26.4574 15.4648 26.0404 16.1835 25.7747 16.9622C25.509 17.7408 25.3999 18.564 25.4534 19.3848C26.293 19.3934 27.1235 19.2119 27.8825 18.8541C28.6415 18.4962 29.3092 17.9713 29.8353 17.3188Z" fill="white"/>
<path d="M57.27 37.4737H50.862L49.3231 42.0048H46.6089L52.6785 25.2407H55.4984L61.568 42.0048H58.8075L57.27 37.4737ZM51.5256 35.3828H56.605L54.1011 28.029H54.031L51.5256 35.3828Z" fill="white"/>
<path d="M74.6751 35.8932C74.6751 39.6914 72.6365 42.1316 69.5601 42.1316C68.7807 42.1723 68.0057 41.9933 67.3237 41.6151C66.6416 41.2369 66.0802 40.6748 65.7036 39.9932H65.6454V46.0471H63.1295V29.7813H65.5648V31.8142H65.6111C66.005 31.1358 66.5759 30.5767 67.2631 30.1962C67.9503 29.8157 68.7282 29.6281 69.5138 29.6534C72.6245 29.6534 74.6751 32.1055 74.6751 35.8932ZM72.0892 35.8932C72.0892 33.4186 70.8068 31.7918 68.8501 31.7918C66.9278 31.7918 65.6349 33.4529 65.6349 35.8932C65.6349 38.3559 66.9278 40.0051 68.8501 40.0051C70.8068 40.0051 72.0892 38.3901 72.0892 35.8932Z" fill="white"/>
<path d="M88.1671 35.8932C88.1671 39.6914 86.1284 42.1316 83.052 42.1316C82.2727 42.1723 81.4976 41.9933 80.8156 41.6151C80.1336 41.2369 79.5721 40.6748 79.1956 39.9932H79.1373V46.0471H76.6215V29.7813H79.0567V31.8142H79.103C79.4969 31.1358 80.0678 30.5767 80.755 30.1962C81.4422 29.8157 82.2201 29.6281 83.0057 29.6534C86.1165 29.6534 88.1671 32.1055 88.1671 35.8932ZM85.5811 35.8932C85.5811 33.4186 84.2987 31.7917 82.3421 31.7917C80.4198 31.7917 79.1268 33.4529 79.1268 35.8932C79.1268 38.3559 80.4198 40.0051 82.3421 40.0051C84.2987 40.0051 85.5811 38.3901 85.5811 35.8932H85.5811Z" fill="white"/>
<path d="M97.082 37.3328C97.2684 38.9953 98.888 40.0868 101.101 40.0868C103.222 40.0868 104.747 38.9952 104.747 37.4962C104.747 36.195 103.827 35.4159 101.648 34.8819L99.4697 34.3585C96.3827 33.615 94.9495 32.1753 94.9495 29.8392C94.9495 26.9467 97.4773 24.96 101.067 24.96C104.619 24.96 107.054 26.9467 107.136 29.8392H104.597C104.445 28.1662 103.058 27.1564 101.031 27.1564C99.0042 27.1564 97.6174 28.1781 97.6174 29.6652C97.6174 30.8504 98.5032 31.5478 100.67 32.0817L102.522 32.5352C105.971 33.3486 107.405 34.7303 107.405 37.1824C107.405 40.3188 104.899 42.2831 100.915 42.2831C97.1864 42.2831 94.6692 40.3649 94.5066 37.3327L97.082 37.3328Z" fill="white"/>
<path d="M112.834 26.8887V29.7812H115.165V31.768H112.834V38.5062C112.834 39.553 113.301 40.0408 114.326 40.0408C114.602 40.036 114.878 40.0166 115.153 39.9828V41.9577C114.692 42.0435 114.224 42.0824 113.756 42.0737C111.274 42.0737 110.306 41.1443 110.306 38.7738V31.768H108.524V29.7812H110.306V26.8887H112.834Z" fill="white"/>
<path d="M116.516 35.8932C116.516 32.0474 118.788 29.6309 122.33 29.6309C125.883 29.6309 128.144 32.0474 128.144 35.8932C128.144 39.7494 125.895 42.1555 122.33 42.1555C118.765 42.1555 116.516 39.7494 116.516 35.8932ZM125.581 35.8932C125.581 33.2551 124.368 31.6981 122.33 31.6981C120.291 31.6981 119.08 33.2669 119.08 35.8932C119.08 38.5418 120.291 40.0869 122.33 40.0869C124.368 40.0869 125.58 38.5418 125.58 35.8932H125.581Z" fill="white"/>
<path d="M130.217 29.7811H132.616V31.8615H132.675C132.837 31.2118 133.219 30.6376 133.756 30.2354C134.293 29.8333 134.952 29.6277 135.623 29.6532C135.913 29.6522 136.202 29.6836 136.485 29.7469V32.0936C136.119 31.982 135.737 31.9308 135.354 31.9419C134.989 31.9272 134.625 31.9914 134.286 32.1303C133.948 32.2692 133.644 32.4795 133.395 32.7466C133.146 33.0138 132.958 33.3315 132.843 33.678C132.729 34.0245 132.691 34.3916 132.733 34.754V42.0037H130.217L130.217 29.7811Z" fill="white"/>
<path d="M148.084 38.4138C147.746 40.6327 145.579 42.1555 142.807 42.1555C139.241 42.1555 137.028 39.7731 137.028 35.951C137.028 32.1171 139.253 29.6306 142.701 29.6306C146.092 29.6306 148.225 31.9536 148.225 35.6597V36.5193H139.568V36.6709C139.528 37.1207 139.584 37.5739 139.733 38.0003C139.883 38.4267 140.121 38.8166 140.433 39.144C140.745 39.4715 141.123 39.729 141.542 39.8995C141.962 40.07 142.412 40.1496 142.865 40.133C143.46 40.1886 144.056 40.0513 144.566 39.7415C145.076 39.4317 145.472 38.9661 145.696 38.4138L148.084 38.4138ZM139.58 34.7658H145.707C145.73 34.3613 145.668 33.9566 145.527 33.5769C145.385 33.1973 145.166 32.8509 144.884 32.5596C144.602 32.2684 144.262 32.0384 143.886 31.8842C143.511 31.73 143.107 31.6549 142.701 31.6636C142.291 31.6612 141.885 31.7397 141.506 31.8946C141.127 32.0495 140.782 32.2777 140.492 32.5661C140.202 32.8545 139.972 33.1974 139.815 33.575C139.659 33.9525 139.579 34.3572 139.58 34.7658V34.7658Z" fill="white"/>
<path d="M49.7352 16.0262H50.8153C51.0012 16.0493 51.19 16.0337 51.3696 15.9805C51.5492 15.9272 51.7158 15.8375 51.8588 15.7168C52.0019 15.5962 52.1184 15.4473 52.2009 15.2795C52.2835 15.1118 52.3302 14.9288 52.3383 14.7421C52.3383 13.9992 51.7778 13.5194 50.8272 13.5194C50.6367 13.4928 50.4428 13.5046 50.2569 13.554C50.0711 13.6034 49.8971 13.6895 49.7451 13.8071C49.5932 13.9247 49.4664 14.0715 49.3723 14.2388C49.2781 14.406 49.2186 14.5904 49.1971 14.781H48.0112C48.0316 14.435 48.1232 14.0969 48.2803 13.7877C48.4375 13.4786 48.6567 13.205 48.9245 12.984C49.1922 12.763 49.5027 12.5993 49.8367 12.5032C50.1706 12.407 50.5208 12.3804 50.8655 12.4251C52.4559 12.4251 53.5758 13.313 53.5758 14.5912C53.5795 15.0194 53.4359 15.4359 53.1688 15.7712C52.9017 16.1065 52.5274 16.3403 52.1083 16.4336V16.5285C52.6051 16.5505 53.073 16.7677 53.4097 17.1327C53.7464 17.4977 53.9245 17.9808 53.905 18.4764C53.8682 18.8326 53.7605 19.178 53.5882 19.4922C53.4158 19.8064 53.1823 20.0831 52.9013 20.3062C52.6203 20.5292 52.2975 20.6941 51.9518 20.7911C51.6061 20.8881 51.2444 20.9153 50.888 20.8712C50.5309 20.9197 50.1676 20.8961 49.8198 20.8016C49.472 20.7072 49.1469 20.5439 48.8637 20.3215C48.5806 20.099 48.3452 19.822 48.1717 19.507C47.9982 19.1919 47.8901 18.8452 47.8539 18.4876H49.0583C49.131 19.2582 49.841 19.7552 50.888 19.7552C51.9351 19.7552 52.6186 19.1969 52.6186 18.4099C52.6186 17.6116 51.9748 17.1198 50.8497 17.1198H49.7352V16.0262Z" fill="white"/>
<path d="M55.2744 18.9569C55.2744 17.8626 56.0928 17.2318 57.5418 17.1421L59.193 17.0472V16.5225C59.193 15.8805 58.7686 15.5179 57.945 15.5179C57.2734 15.5179 56.8093 15.7638 56.6745 16.1936H55.5097C55.6327 15.1495 56.619 14.4797 58.0018 14.4797C59.5302 14.4797 60.3921 15.2384 60.3921 16.5225V20.676H59.2327V19.8217H59.1375C58.9443 20.1281 58.673 20.378 58.3513 20.5456C58.0296 20.7133 57.669 20.7929 57.3064 20.7762C57.0505 20.8027 56.7919 20.7755 56.5472 20.6962C56.3024 20.617 56.0771 20.4875 55.8856 20.3161C55.6942 20.1447 55.5409 19.9352 55.4356 19.701C55.3303 19.4669 55.2754 19.2134 55.2744 18.9569ZM59.193 18.4374V17.9292L57.7043 18.0241C56.8648 18.0801 56.484 18.3649 56.484 18.9008C56.484 19.4479 56.96 19.7663 57.6145 19.7663C57.8062 19.7857 57.9999 19.7664 58.1841 19.7096C58.3682 19.6527 58.539 19.5596 58.6863 19.4356C58.8335 19.3116 58.9543 19.1593 59.0414 18.9879C59.1284 18.8164 59.18 18.6292 59.193 18.4374Z" fill="white"/>
<path d="M63.5853 15.607V20.6762H62.3822V14.5972H66.396V15.607L63.5853 15.607Z" fill="white"/>
<path d="M73.6875 17.6338C73.6875 19.5652 72.7078 20.7761 71.1689 20.7761C70.7912 20.8018 70.4139 20.7194 70.0815 20.5385C69.7492 20.3576 69.4756 20.0858 69.2929 19.755H69.1977V22.6969H67.9946V14.5971H69.1528V15.6017H69.2427C69.4286 15.2594 69.7058 14.975 70.0436 14.7799C70.3814 14.5848 70.7668 14.4867 71.157 14.4962C72.7078 14.4962 73.6875 15.7018 73.6875 17.6338ZM72.45 17.6338C72.45 16.3498 71.8405 15.5739 70.8212 15.5739C69.8086 15.5739 69.1753 16.3663 69.1753 17.6391C69.1753 18.906 69.8085 19.699 70.8159 19.699C71.8405 19.699 72.45 18.9232 72.45 17.6338Z" fill="white"/>
<path d="M75.29 22.8534V21.8204C75.4202 21.8369 75.5514 21.8444 75.6826 21.8428C75.9389 21.8618 76.1932 21.7856 76.3967 21.6291C76.6002 21.4725 76.7385 21.2465 76.7852 20.9945L76.8751 20.6985L74.6686 14.5972H75.9787L77.5071 19.4256H77.6023L79.1253 14.5972H80.4011L78.1285 20.9272C77.6076 22.4064 77.0312 22.881 75.7884 22.881C75.6879 22.881 75.4024 22.8698 75.29 22.8534Z" fill="white"/>
<path d="M81.3386 18.9509H82.5364C82.6541 19.4868 83.1578 19.7663 83.8624 19.7663C84.6636 19.7663 85.1554 19.4143 85.1554 18.8672C85.1554 18.2812 84.7138 18.0017 83.8624 18.0017H82.9502V17.0696H83.8466C84.5737 17.0696 84.9439 16.7908 84.9439 16.2825C84.9439 15.8363 84.5856 15.4955 83.8466 15.4955C83.1736 15.4955 82.6818 15.7803 82.6038 16.2601H81.4444C81.5311 15.7087 81.8313 15.2132 82.2805 14.8803C82.7298 14.5473 83.2921 14.4035 83.8466 14.4797C85.2955 14.4797 86.1244 15.1329 86.1244 16.1599C86.1312 16.4459 86.0393 16.7256 85.8641 16.9521C85.6889 17.1786 85.4411 17.3383 85.162 17.4045V17.4994C85.4943 17.5422 85.7993 17.705 86.0191 17.9572C86.2389 18.2093 86.3582 18.5331 86.3545 18.8672C86.3545 20.0228 85.3682 20.7874 83.8624 20.7874C82.5311 20.7874 81.4497 20.179 81.3386 18.9509Z" fill="white"/>
<path d="M88.0861 20.6761V14.5972H89.2786V18.7784H89.3737L92.1831 14.5972H93.3756V20.6761H92.1831V16.4726H92.0932L89.2786 20.6762L88.0861 20.6761Z" fill="white"/>
<path d="M99.9449 15.607H98.0252V20.6762H96.8208V15.607H94.9011V14.5972H99.9449V15.607Z" fill="white"/>
<path d="M106.426 19.0346C106.262 19.5902 105.908 20.0707 105.425 20.3921C104.942 20.7136 104.361 20.8556 103.783 20.7934C103.382 20.8039 102.983 20.7272 102.614 20.5686C102.245 20.4099 101.915 20.1731 101.647 19.8745C101.379 19.576 101.18 19.2229 101.062 18.8397C100.945 18.4565 100.912 18.0525 100.967 17.6556C100.914 17.2575 100.947 16.8526 101.064 16.4683C101.181 16.0839 101.38 15.7292 101.646 15.428C101.913 15.1269 102.241 14.8863 102.609 14.7227C102.977 14.5591 103.375 14.4762 103.778 14.4796C105.474 14.4796 106.499 15.6352 106.499 17.5442V17.9628H102.194V18.03C102.175 18.2532 102.203 18.4778 102.276 18.6895C102.35 18.9013 102.466 19.0954 102.619 19.2594C102.772 19.4234 102.958 19.5537 103.164 19.6419C103.371 19.7301 103.593 19.7743 103.818 19.7716C104.105 19.8059 104.397 19.7541 104.655 19.6229C104.913 19.4917 105.126 19.2869 105.267 19.0346L106.426 19.0346ZM102.194 17.0755H105.272C105.287 16.8716 105.259 16.6668 105.191 16.4742C105.122 16.2816 105.013 16.1054 104.872 15.9571C104.731 15.8088 104.56 15.6916 104.371 15.613C104.181 15.5344 103.978 15.4962 103.773 15.5007C103.565 15.4979 103.358 15.5367 103.165 15.6148C102.972 15.693 102.797 15.8089 102.65 15.9557C102.503 16.1025 102.387 16.2773 102.308 16.4696C102.23 16.6619 102.191 16.868 102.194 17.0755H102.194Z" fill="white"/>
<path d="M111.526 14.5972H114.274C115.467 14.5972 116.166 15.1997 116.166 16.1429C116.168 16.4422 116.067 16.7331 115.879 16.9669C115.692 17.2006 115.43 17.3631 115.136 17.427V17.5219C115.492 17.5444 115.826 17.7023 116.069 17.9631C116.311 18.2239 116.444 18.5677 116.44 18.9234C116.44 19.984 115.64 20.6762 114.302 20.6762H111.526V14.5972ZM112.718 15.5181V17.0922H113.911C114.638 17.0922 114.986 16.8133 114.986 16.2992C114.986 15.8252 114.683 15.518 114.044 15.518L112.718 15.5181ZM112.718 17.9742V19.7553H114.145C114.856 19.7553 115.237 19.4422 115.237 18.8674C115.237 18.259 114.806 17.9742 113.994 17.9742L112.718 17.9742Z" fill="white"/>
</svg>
