<svg width="280" height="71" viewBox="0 0 280 71" fill="none" xmlns="http://www.w3.org/2000/svg">
<path d="M23.2181 32.7888C21.6109 32.7871 20.0392 33.2618 18.702 34.1528C17.3648 35.0437 16.3221 36.3109 15.7059 37.7941C15.0896 39.2772 14.9275 40.9096 15.24 42.4849C15.5526 44.0601 16.3257 45.5073 17.4616 46.6434C18.5975 47.7795 20.0452 48.5535 21.6215 48.8674C23.1977 49.1813 24.8318 49.021 26.3168 48.4069C27.8019 47.7927 29.0713 46.7523 29.9644 45.4172C30.8576 44.0821 31.3343 42.5123 31.3343 40.9064C31.332 38.7556 30.4765 36.6935 28.9552 35.1719C27.4338 33.6503 25.3708 32.7933 23.2181 32.7888ZM26.5563 38.0124C26.3907 39.2091 24.7598 39.9729 22.9166 39.7098C21.0733 39.4467 19.7143 38.2755 19.8799 37.0789C20.0456 35.8822 21.6764 35.1184 23.5197 35.3815C25.3629 35.6446 26.7177 36.8158 26.5521 38.0124H26.5563Z" fill="#852973"/>
<path d="M49.4023 32.7889H49.2919L52.2648 40.6901L47.1004 42.6378L44.1274 34.7409C42.6822 35.9804 41.7194 37.6884 41.4074 39.5657C41.0955 41.4431 41.4544 43.3703 42.4212 45.0099C43.388 46.6496 44.9013 47.8972 46.696 48.5346C48.4907 49.1719 50.4526 49.1582 52.2383 48.496C54.0239 47.8338 55.5196 46.5652 56.4635 44.9122C57.4074 43.2593 57.7394 41.3273 57.4013 39.4545C57.0633 37.5817 56.0767 35.8873 54.6144 34.6679C53.152 33.4486 51.307 32.7819 49.4023 32.7847V32.7889Z" fill="#852973"/>
<path d="M0 0V71H71.0579V0H0ZM26.5485 24.6624C19.2987 24.6624 18.7891 21.6921 18.7891 17.5506C26.3106 17.5548 26.5485 20.5464 26.5485 24.6667V24.6624ZM49.3978 54.3236C46.3573 54.3196 43.4078 53.2867 41.03 51.3934C38.6522 49.5001 36.9864 46.858 36.304 43.8976C35.5671 47.1131 33.6708 49.9447 30.9772 51.8522C28.2836 53.7596 24.9813 54.6091 21.7007 54.2387C18.42 53.8682 15.3908 52.3036 13.1913 49.8436C10.9917 47.3836 9.77592 44.2005 9.77592 40.9018C9.77592 37.6032 10.9917 34.42 13.1913 31.96C15.3908 29.5 18.42 27.9354 21.7007 27.565C24.9813 27.1945 28.2836 28.044 30.9772 29.9514C33.6708 31.8589 35.5671 34.6906 36.304 37.906C37.0968 34.4746 39.2039 31.4903 42.1735 29.5932L40.1986 24.3612H30.7573V18.8448H44.021L47.3422 27.637C49.1707 27.3551 51.0379 27.4536 52.8266 27.9264C54.6152 28.3992 56.2869 29.2361 57.7367 30.3846C59.1865 31.533 60.3833 32.9684 61.2519 34.6006C62.1205 36.2328 62.6423 38.0267 62.7846 39.8698C62.9269 41.7129 62.6865 43.5655 62.0786 45.3115C61.4708 47.0575 60.5084 48.6592 59.252 50.0162C57.9956 51.3732 56.4721 52.4562 54.7771 53.1974C53.0822 53.9387 51.2522 54.322 49.402 54.3236H49.3978Z" fill="#852973"/>
<path d="M100.537 37.9106C101.517 37.3579 102.335 36.5592 102.911 35.5937C103.551 34.4991 103.877 33.2499 103.854 31.9825C103.887 30.9573 103.663 29.94 103.203 29.0233C102.742 28.1065 102.059 27.3194 101.217 26.7335C99.4752 25.4604 96.9694 24.8367 93.7629 24.8367H80.9707V52.1132H94.5613C98.0227 52.1132 100.703 51.464 102.516 50.1782C104.33 48.8925 105.268 47.0296 105.268 44.6618C105.319 43.1076 104.848 41.5811 103.93 40.3251C103.061 39.2046 101.881 38.3648 100.537 37.9106ZM97.2073 35.3094C96.2899 35.9247 94.9478 36.2387 93.2278 36.2387H86.2201V28.9994H93.2278C94.9521 28.9994 96.2899 29.3135 97.2073 29.9287C97.6503 30.2238 98.0089 30.6289 98.2479 31.1043C98.487 31.5797 98.5981 32.109 98.5706 32.6403C98.5945 33.1651 98.4813 33.6871 98.2423 34.155C98.0033 34.6229 97.6466 35.0207 97.2073 35.3094ZM86.2158 40.3632H94.2301C98.0864 40.3632 99.9636 41.6023 99.9636 44.1568C99.9636 46.7114 98.0907 47.9504 94.2301 47.9504H86.2158V40.3632Z" fill="#852973"/>
<path d="M116.145 31.2529H111.091V52.1133H116.145V31.2529Z" fill="#852973"/>
<path d="M115.916 22.8593C115.288 22.3093 114.474 22.0168 113.639 22.0403C112.797 22.0146 111.979 22.3192 111.359 22.889C111.068 23.1664 110.836 23.4998 110.678 23.8693C110.519 24.2387 110.438 24.6363 110.438 25.0382C110.438 25.44 110.519 25.8377 110.678 26.2071C110.836 26.5766 111.068 26.91 111.359 27.1874C111.979 27.7572 112.797 28.0618 113.639 28.0361C114.064 28.0501 114.487 27.9776 114.883 27.8229C115.279 27.6683 115.639 27.4347 115.941 27.1365C116.236 26.8468 116.468 26.5002 116.623 26.1179C116.779 25.7356 116.854 25.3256 116.846 24.913C116.85 24.5236 116.769 24.138 116.609 23.7832C116.448 23.4284 116.211 23.1131 115.916 22.8593Z" fill="#852973"/>
<path d="M138.319 32.3858C136.546 31.4878 134.586 31.0198 132.598 31.0198C130.61 31.0198 128.65 31.4878 126.877 32.3858C125.229 33.2576 123.856 34.5694 122.911 36.1751C121.974 37.8631 121.482 39.7614 121.482 41.6914C121.482 43.6214 121.974 45.5198 122.911 47.2077C123.85 48.826 125.224 50.149 126.877 51.0267C128.65 51.9251 130.61 52.3933 132.598 52.3933C134.586 52.3933 136.546 51.9251 138.319 51.0267C139.972 50.1487 141.346 48.8257 142.286 47.2077C143.222 45.5198 143.714 43.6214 143.714 41.6914C143.714 39.7614 143.222 37.8631 142.286 36.1751C141.34 34.5698 139.966 33.2581 138.319 32.3858ZM132.581 48.0267C131.781 48.0514 130.984 47.9091 130.242 47.6088C129.5 47.3085 128.828 46.8568 128.27 46.2827C127.179 44.9981 126.58 43.3679 126.58 41.6829C126.58 39.9979 127.179 38.3677 128.27 37.0832C128.828 36.5092 129.5 36.0577 130.242 35.7574C130.984 35.4572 131.781 35.3147 132.581 35.3392C133.385 35.3159 134.184 35.4588 134.93 35.7589C135.675 36.059 136.35 36.5099 136.913 37.0832C138.016 38.3624 138.623 39.9946 138.623 41.6829C138.623 43.3712 138.016 45.0035 136.913 46.2827C136.351 46.8562 135.675 47.3071 134.93 47.6073C134.184 47.9074 133.385 48.0502 132.581 48.0267Z" fill="#852973"/>
<path d="M156.811 46.3848L150.488 31.3208L150.458 31.2529H145.191L154.115 52.0454L154.144 52.1133H159.279L168.168 31.4057L168.232 31.2529H163.352L156.811 46.3848Z" fill="#852973"/>
<path d="M177.227 31.2529H172.173V52.1133H177.227V31.2529Z" fill="#852973"/>
<path d="M177.01 22.8592C176.381 22.3092 175.568 22.0167 174.733 22.0403C173.891 22.015 173.073 22.3196 172.453 22.8889C172.162 23.1663 171.93 23.4998 171.772 23.8692C171.613 24.2387 171.532 24.6363 171.532 25.0382C171.532 25.44 171.613 25.8377 171.772 26.2072C171.93 26.5766 172.162 26.9101 172.453 27.1875C173.073 27.7572 173.891 28.0618 174.733 28.0361C175.158 28.0499 175.581 27.9773 175.977 27.8226C176.372 27.668 176.733 27.4345 177.035 27.1365C177.329 26.8465 177.56 26.4997 177.715 26.1174C177.869 25.7351 177.945 25.3253 177.936 24.913C177.94 24.524 177.86 24.1385 177.7 23.7838C177.54 23.429 177.305 23.1134 177.01 22.8592Z" fill="#852973"/>
<path d="M189.122 23.2114H184.068V52.1087H189.122V23.2114Z" fill="#852973"/>
<path d="M201.015 23.2114H195.961V52.1087H201.015V23.2114Z" fill="#852973"/>
<path d="M216.082 31.0192C214.437 31.0113 212.799 31.2342 211.215 31.6812C209.793 32.0697 208.455 32.7186 207.27 33.595L207.193 33.6501L209.198 37.3674L209.3 37.2825C210.132 36.6122 211.085 36.108 212.107 35.7973C213.205 35.4429 214.351 35.2624 215.505 35.2626C217.17 35.2626 218.439 35.6445 219.28 36.3956C220.121 37.1467 220.555 38.233 220.555 39.6376V39.8328H215.326C212.353 39.8328 210.132 40.4056 208.739 41.5301C208.055 42.0706 207.507 42.7634 207.138 43.5532C206.769 44.343 206.59 45.2079 206.616 46.079C206.602 47.2387 206.941 48.3753 207.588 49.338C208.271 50.3267 209.219 51.1031 210.323 51.5785C211.619 52.136 213.02 52.4095 214.43 52.3805C215.802 52.4142 217.167 52.1673 218.439 51.6549C219.377 51.2649 220.197 50.6374 220.818 49.8344V52.1089H225.604V39.9049C225.604 36.9345 224.78 34.7025 223.149 33.2343C221.519 31.7661 219.157 31.0192 216.082 31.0192ZM220.537 43.2614V45.5274C220.18 46.4975 219.495 47.3125 218.601 47.8316C217.636 48.3841 216.54 48.6656 215.428 48.6463C214.427 48.7045 213.433 48.4414 212.591 47.8952C212.271 47.6714 212.013 47.3714 211.838 47.0224C211.664 46.6734 211.58 46.2864 211.593 45.8966C211.593 44.1228 212.923 43.2614 215.662 43.2614H220.537Z" fill="#852973"/>
<path d="M248.361 33.8072C247.56 32.9053 246.557 32.2046 245.434 31.7619C244.12 31.2537 242.72 31.0016 241.311 31.0193C239.446 30.9948 237.604 31.4229 235.942 32.2669C234.372 33.0716 233.058 34.2969 232.145 35.8058C231.204 37.396 230.723 39.2162 230.757 41.0634C230.725 42.9157 231.206 44.7408 232.145 46.3379C233.056 47.8581 234.37 49.0963 235.942 49.9151C237.601 50.7741 239.446 51.2113 241.315 51.1881C242.662 51.2015 244.001 50.9626 245.26 50.4837C246.338 50.0689 247.316 49.4295 248.127 48.6081V49.4144C248.127 51.4851 247.605 53.0467 246.573 54.0524C245.541 55.0581 243.888 55.5673 241.659 55.5673C240.245 55.5649 238.84 55.3386 237.497 54.8968C236.263 54.5219 235.11 53.9188 234.099 53.1188L234.001 53.0382L231.721 56.8572L231.793 56.9167C233.109 57.9504 234.624 58.7016 236.244 59.1232C238.093 59.636 240.003 59.8916 241.922 59.8828C249.388 59.8828 253.173 56.1783 253.173 48.8712V31.2527H248.361V33.8072ZM246.479 36.9303C247.046 37.4555 247.494 38.0964 247.791 38.8095C248.089 39.5226 248.229 40.2912 248.204 41.0634C248.23 41.8444 248.09 42.622 247.792 43.3447C247.495 44.0675 247.047 44.7189 246.479 45.2558C245.23 46.303 243.651 46.8769 242.02 46.8769C240.389 46.8769 238.81 46.303 237.56 45.2558C236.991 44.7204 236.543 44.0698 236.246 43.3476C235.949 42.6254 235.809 41.8481 235.836 41.0676C235.81 40.2955 235.95 39.5267 236.248 38.8135C236.545 38.1004 236.993 37.4596 237.56 36.9346C238.816 35.8999 240.392 35.3339 242.02 35.3339C243.647 35.3339 245.224 35.8999 246.479 36.9346V36.9303Z" fill="#852973"/>
<path d="M278.651 36.1579C277.784 34.5642 276.482 33.2488 274.897 32.3643C273.228 31.4509 271.351 30.9859 269.448 31.015C267.512 30.9872 265.602 31.4577 263.901 32.3813C262.286 33.271 260.952 34.5937 260.049 36.2004C259.113 37.8762 258.634 39.7682 258.66 41.687C258.633 43.6204 259.125 45.5256 260.087 47.2034C261.043 48.8372 262.448 50.1626 264.135 51.0224C265.824 51.8269 267.657 52.2863 269.526 52.3737C271.395 52.4612 273.263 52.1749 275.02 51.5317C276.402 50.9939 277.627 50.1185 278.583 48.9856L278.643 48.9135L275.912 45.7734L275.827 45.8583C275.108 46.5857 274.247 47.1574 273.297 47.5378C272.347 47.9181 271.329 48.099 270.306 48.0691C268.734 48.1229 267.188 47.6625 265.902 46.7579C264.781 45.9378 264.01 44.7257 263.744 43.3632H279.921V43.2613C279.972 42.6418 279.998 42.158 279.998 41.8228C280.042 39.8505 279.578 37.9 278.651 36.1579ZM265.592 36.4507C266.669 35.5463 268.041 35.0677 269.448 35.1056C270.864 35.0614 272.245 35.5472 273.321 36.4677C274.328 37.3571 274.98 38.5786 275.16 39.9091H263.693C263.886 38.5621 264.559 37.3297 265.587 36.438L265.592 36.4507Z" fill="#852973"/>
<path d="M135.991 28.2355H136.102V28.1252C136.102 24.3062 135.652 21.9851 129.413 21.9851H129.302V22.0954C129.302 25.6895 129.782 28.2355 135.991 28.2355Z" fill="#852973"/>
</svg>
