<svg width="150" height="150" viewBox="0 0 150 150" fill="none" xmlns="http://www.w3.org/2000/svg">
<path d="M149.997 75.0003C149.997 116.421 116.419 150 74.9983 150C33.5779 150 0 116.421 0 75.0003C0 33.5793 33.5779 0 74.9983 0C116.419 0 149.997 33.5787 149.997 75.0003Z" fill="#00632B"/>
<path d="M74.999 147.393C65.2263 147.393 55.7456 145.479 46.8207 141.704C29.4678 134.346 15.6539 120.532 8.29666 103.179C4.52184 94.2535 2.60742 84.7725 2.60742 75.0002C2.60742 65.2279 4.52184 55.7463 8.29666 46.8212C15.6539 29.4679 29.4678 15.6536 46.8207 8.29614C55.7456 4.52122 65.2258 2.60675 74.999 2.60675C84.7722 2.60675 94.2518 4.52122 103.177 8.29614C120.531 15.6533 134.345 29.4676 141.702 46.8212C145.477 55.7463 147.392 65.2273 147.392 75.0002C147.392 84.7731 145.477 94.2535 141.702 103.179C134.345 120.533 120.531 134.348 103.177 141.705C94.2518 145.479 84.7711 147.393 74.999 147.393ZM74.999 3.88622C65.3985 3.88622 56.0859 5.76672 47.3192 9.47479C30.273 16.7025 16.7031 30.2726 9.47528 47.3192C5.76731 56.0861 3.88686 65.3994 3.88686 75.003C3.88686 84.6065 5.76731 93.9132 9.47528 102.68C16.7029 119.727 30.2728 133.297 47.3192 140.525C56.0859 144.233 65.3985 146.114 74.999 146.114C84.5995 146.114 93.9121 144.233 102.679 140.525C119.725 133.297 133.295 119.727 140.523 102.68C144.231 93.9137 146.111 84.6004 146.111 75.0002C146.111 65.4 144.231 56.0861 140.523 47.3192C133.295 30.2726 119.725 16.7025 102.679 9.47479C93.9115 5.76672 84.5995 3.88622 74.999 3.88622Z" fill="#EAEAEA"/>
<path d="M104.465 104.467C120.739 88.1932 120.739 61.8074 104.465 45.5332C88.1916 29.259 61.8065 29.259 45.5327 45.5332C29.2589 61.8074 29.2589 88.1932 45.5327 104.467C61.8065 120.742 88.1916 120.742 104.465 104.467Z" stroke="#EAEAEA" stroke-width="1.26997" stroke-miterlimit="10"/>
<path d="M101.997 101.998C116.907 87.0877 116.907 62.9129 101.997 48.0024C87.0864 33.0918 62.9123 33.0919 48.0021 48.0024C33.0919 62.9129 33.0919 87.0877 48.0021 101.998C62.9123 116.909 87.0864 116.909 101.997 101.998Z" fill="#EAEAEA"/>
<path d="M120.536 36.8189C120.536 37.3968 120.365 37.9618 120.044 38.4423C119.723 38.9228 119.267 39.2973 118.733 39.5185C118.199 39.7397 117.611 39.7975 117.044 39.6848C116.478 39.572 115.957 39.2937 115.548 38.8851C115.14 38.4764 114.861 37.9558 114.749 37.389C114.636 36.8221 114.694 36.2346 114.915 35.7007C115.136 35.1667 115.511 34.7104 115.991 34.3893C116.472 34.0682 117.037 33.8969 117.614 33.8969C118.389 33.8969 119.133 34.2047 119.681 34.7527C120.229 35.3007 120.536 36.0439 120.536 36.8189Z" fill="#EAEAEA"/>
<path d="M36.5833 36.9742C36.5833 37.5521 36.412 38.117 36.0909 38.5976C35.7698 39.0781 35.3135 39.4526 34.7795 39.6738C34.2456 39.8949 33.6581 39.9528 33.0912 39.8401C32.5244 39.7273 32.0038 39.449 31.5951 39.0404C31.1865 38.6317 30.9082 38.111 30.7954 37.5442C30.6827 36.9774 30.7405 36.3899 30.9617 35.8559C31.1828 35.322 31.5574 34.8657 32.0379 34.5446C32.5184 34.2235 33.0834 34.0521 33.6613 34.0521C34.045 34.0521 34.425 34.1277 34.7795 34.2746C35.134 34.4214 35.4562 34.6366 35.7275 34.908C35.9988 35.1793 36.2141 35.5014 36.3609 35.8559C36.5078 36.2105 36.5833 36.5904 36.5833 36.9742Z" fill="#EAEAEA"/>
<path d="M10.3956 67.3886L9.73867 70.6793L21.092 65.2308L27.6691 73.9776L28.3261 70.6869L22.1245 62.4235L22.3005 61.5419L29.8508 63.0492L30.3893 60.352L12.5128 56.7831L11.9744 59.4803L19.9873 61.0801L19.6075 62.9829L10.3956 67.3886Z" fill="#EAEAEA"/>
<path d="M20.4047 90.6421C26.1766 89.9424 29.2562 86.0641 28.6901 81.3937C28.1219 76.7057 24.2059 73.6843 18.4341 74.3839C12.6711 75.0825 9.58152 78.9531 10.1497 83.6411C10.7158 88.3114 14.6329 91.3417 20.4047 90.6421ZM20.0779 87.9456C15.6807 88.4786 13.0107 86.4417 12.6347 83.3399C12.2577 80.2292 14.3648 77.6222 18.762 77.0892C23.1592 76.5562 25.8281 78.5843 26.2052 81.6949C26.5811 84.7968 24.4751 87.4126 20.0779 87.9456Z" fill="#EAEAEA"/>
<path d="M13.6703 98.7588L14.9133 101.212L22.0037 97.6197L26.1111 105.726L19.0207 109.319L20.2678 111.78L36.5288 103.541L35.2817 101.08L28.2151 104.66L24.1078 96.5536L31.1743 92.9731L29.9313 90.5196L13.6703 98.7588Z" fill="#EAEAEA"/>
<path d="M44.3744 119.56C46.6134 116.308 45.9758 112.552 43.1862 109.893C39.7717 106.638 34.8144 106.794 30.7917 111.014C26.769 115.234 26.8369 120.181 30.2643 123.448C33.1635 126.212 37.015 126.416 39.934 124.218L37.9301 122.295C35.9795 123.658 33.6778 123.234 32.0091 121.644C29.7478 119.488 29.6926 116.127 32.7696 112.9C35.8219 109.697 39.1994 109.56 41.4736 111.728C43.1551 113.331 43.6632 115.623 42.3643 117.644L44.3744 119.56Z" fill="#EAEAEA"/>
<path d="M41.6271 132.01L52.0023 137.053L53.0372 134.924L45.1357 131.083L47.5752 126.064L54.8442 129.597L55.8753 127.475L48.6062 123.942L51.034 118.947L58.8394 122.74L59.8743 120.611L49.5952 115.615L41.6271 132.01Z" fill="#EAEAEA"/>
<path d="M58.4938 139.115L61.2081 139.559L62.2427 133.235L65.932 133.838C70.1046 134.521 72.5812 132.337 73.1244 129.017C73.6661 125.705 72.0303 122.858 67.849 122.174L61.4365 121.125L58.4938 139.115ZM62.6191 130.933L63.7701 123.897L67.1783 124.455C69.8663 124.894 70.7258 126.532 70.3925 128.57C70.0591 130.608 68.7154 131.93 66.0625 131.497L62.6191 130.933Z" fill="#EAEAEA"/>
<path d="M77.6563 141.181L84.5806 140.245C88.7792 139.677 90.3931 137.33 90.0186 134.561C89.6405 131.765 87.4689 130.45 85.6651 130.596L85.6413 130.419C87.2423 129.772 88.4745 128.455 88.1692 126.197C87.8079 123.524 85.6753 121.702 81.8294 122.222L75.2139 123.116L77.6563 141.181ZM80.0659 138.475L79.2835 132.689L83.3146 132.144C85.5022 131.848 87.0602 133.075 87.2927 134.795C87.4979 136.312 86.6197 137.589 83.9999 137.943L80.0659 138.475ZM78.9961 130.563L78.2532 125.068L81.9755 124.565C84.1366 124.272 85.3224 125.271 85.5252 126.77C85.7613 128.517 84.4826 129.821 82.6479 130.069L78.9961 130.563Z" fill="#EAEAEA"/>
<path d="M98.5143 136.719L97.8977 131.64L104.306 128.507L107.927 132.117L110.555 130.832L96.6299 117.312L93.77 118.71L95.8867 138.003L98.5143 136.719ZM97.6004 129.205L96.5968 121.021L96.725 120.958L102.567 126.777L97.6004 129.205Z" fill="#EAEAEA"/>
<path d="M115.6 127.089L117.553 125.136L111.91 119.492L118.362 113.04L124.005 118.683L125.964 116.724L113.022 103.781L111.063 105.74L116.687 111.365L110.235 117.817L104.61 112.193L102.658 114.146L115.6 127.089Z" fill="#EAEAEA"/>
<path d="M115.756 104.302L118.311 99.2302L132.476 106.367L133.71 103.919L119.544 96.7818L122.104 91.7023L119.989 90.637L113.641 103.236L115.756 104.302Z" fill="#EAEAEA"/>
<path d="M131.494 76.2456C125.729 75.3738 121.713 78.2953 121.008 82.9598C120.3 87.6419 123.273 91.6114 129.038 92.4833C134.794 93.3538 138.817 90.4424 139.525 85.7603C140.231 81.0958 137.258 77.1174 131.494 76.2456ZM131.086 78.9387C135.478 79.6029 137.512 82.287 137.043 85.3849C136.573 88.4917 133.838 90.4456 129.447 89.7814C125.055 89.1172 123.02 86.4419 123.49 83.3351C123.958 80.2372 126.695 78.2745 131.086 78.9387Z" fill="#EAEAEA"/>
<path d="M140.169 70.5629L138.912 63.7154C138.149 59.5632 135.737 58.0675 132.998 58.5706C130.233 59.0785 129.027 61.3018 129.257 63.0902L129.082 63.1223C128.362 61.5592 126.994 60.3948 124.761 60.805C122.118 61.2905 120.405 63.4988 121.103 67.302L122.305 73.8443L140.169 70.5629ZM137.363 68.2921L131.641 69.3432L130.908 65.3568C130.511 63.1935 131.658 61.585 133.359 61.2726C134.86 60.997 136.172 61.8109 136.648 64.4017L137.363 68.2921ZM129.538 69.7293L124.104 70.7275L123.428 67.0464C123.035 64.9093 123.973 63.682 125.456 63.4096C127.183 63.0924 128.542 64.3036 128.875 66.118L129.538 69.7293Z" fill="#EAEAEA"/>
<path d="M55.224 30.7557L61.7746 28.8326C65.6605 27.6917 67.2528 24.8679 66.3328 21.7335C65.4153 18.6076 62.5971 17.255 58.7112 18.3959L54.7996 19.5443L53.3957 14.7615L61.663 12.3343L60.9961 10.0625L50.0899 13.2645L55.224 30.7557ZM57.2112 27.7604L55.4514 21.7648L59.363 20.6164C61.6176 19.9545 63.2456 20.8866 63.7094 22.4666C64.1857 24.0893 63.3775 25.95 61.1228 26.612L57.2112 27.7604Z" fill="#EAEAEA"/>
<path d="M70.7274 26.8992L82.2593 27.1951L82.3201 24.8282L73.5377 24.6029L73.6809 19.0238L81.7603 19.2311L81.8208 16.8731L73.7414 16.6658L73.8838 11.1134L82.5595 11.336L82.6202 8.96916L71.1951 8.67597L70.7274 26.8992Z" fill="#EAEAEA"/>
<path d="M90.9758 30.0773C94.4732 31.3051 97.7762 30.1152 98.7665 27.2675C99.5356 25.1034 98.7684 23.086 96.6159 21.9356L96.6629 21.8017C98.615 21.9701 100.271 20.9728 100.939 19.0455C101.831 16.53 100.519 13.6541 97.2229 12.4968C94.0769 11.3924 90.8834 12.4046 89.8216 15.1614L92.3233 16.0397C92.934 14.4873 94.7499 14.0533 96.4316 14.6437C98.1803 15.2576 98.9535 16.7227 98.39 18.3011C97.8168 19.9607 96.1046 20.5813 94.2053 19.9146L92.7578 19.4064L92.0176 21.5149L93.4651 22.023C95.8413 22.8572 96.7905 24.5438 96.1854 26.2674C95.6009 27.9324 93.7569 28.5538 91.7404 27.8459C89.883 27.1938 88.7703 25.7318 89.2045 24.1738L86.5773 23.2514C85.705 26.0842 87.5119 28.8613 90.9758 30.0773Z" fill="#EAEAEA"/>
<path d="M72.1576 67.8448V69.6924C72.1578 70.0678 72.0593 70.4367 71.8718 70.7619L67.9795 77.5018L78.3782 69.5576V54.0168C78.3782 53.6918 78.5073 53.3801 78.7371 53.1503C78.9669 52.9205 79.2786 52.7914 79.6036 52.7914H79.9155V50.4519H70.628L70.6208 52.7914H70.9333C71.2583 52.7914 71.57 52.9205 71.7998 53.1503C72.0296 53.3801 72.1587 53.6918 72.1587 54.0168V55.1125" fill="#00632B"/>
<path d="M85.6391 82.8391L85.618 82.8057L80.5704 74.0605L61.1254 88.9178L55.4746 98.0229C55.3841 98.1834 55.3373 98.3649 55.3389 98.5492C55.3406 98.7335 55.3906 98.9141 55.484 99.073C55.5774 99.2319 55.7109 99.3635 55.8711 99.4546C56.0314 99.5456 56.2127 99.593 56.397 99.592H94.1407C94.325 99.593 94.5063 99.5456 94.6666 99.4546C94.8268 99.3635 94.9603 99.2319 95.0537 99.073C95.1471 98.9141 95.1971 98.7335 95.1988 98.5492C95.2004 98.3649 95.1536 98.1834 95.0631 98.0229L85.6391 82.8391Z" fill="#00632B"/>
<path d="M105.58 50.3095L43.5547 97.9216L44.9561 99.7473L106.981 52.1352L105.58 50.3095Z" fill="#00632B"/>
</svg>
