<svg width="71" height="60" viewBox="0 0 71 60" fill="none" xmlns="http://www.w3.org/2000/svg">
<path fill-rule="evenodd" clip-rule="evenodd" d="M23.4401 30V59.9999H27.491H31.5418V46.5384V33.0769H35.2069H38.872V46.5384V59.9999H42.9228H46.9737V30V0H35.2069H23.4401V30ZM54.3038 30V59.9999H62.2127H70.1215V55.9614V51.923H66.2635H62.4055V30V8.07691H66.2635H70.1215V4.03846V0H62.2127H54.3038V30ZM0.485229 30V59.8076H8.20116H15.9171V55.9614V52.1153H12.0591H8.20116V42.4999V32.8846H12.0591H15.9171V30V27.1153H12.0591H8.20116V17.5V7.8846H12.0591H15.9171V4.03846V0.192307H8.20116H0.485229V30ZM38.872 16.5384V26.923H35.2069H31.5418V16.5384V6.15384H35.2069H38.872V16.5384Z" fill="#EAEAEA"/>
</svg>
