<svg width="150" height="150" viewBox="0 0 150 150" fill="none" xmlns="http://www.w3.org/2000/svg">
<path d="M149.997 75.0003C149.997 116.421 116.419 150 74.9983 150C33.5779 150 0 116.421 0 75.0003C0 33.5793 33.5779 0 74.9983 0C116.419 0 149.997 33.5787 149.997 75.0003Z" fill="#00632B"/>
<path d="M74.9983 147.393C65.2256 147.393 55.7449 145.479 46.82 141.704C29.4671 134.346 15.6532 120.532 8.29593 103.179C4.52111 94.2536 2.60669 84.7726 2.60669 75.0002C2.60669 65.2279 4.52111 55.7463 8.29593 46.8212C15.6532 29.4679 29.4671 15.6536 46.82 8.29617C55.7449 4.52125 65.2251 2.60678 74.9983 2.60678C84.7714 2.60678 94.2511 4.52125 103.177 8.29617C120.53 15.6534 134.344 29.4677 141.702 46.8212C145.477 55.7463 147.391 65.2273 147.391 75.0002C147.391 84.7731 145.477 94.2536 141.702 103.179C134.345 120.533 120.53 134.348 103.177 141.705C94.2511 145.479 84.7703 147.393 74.9983 147.393ZM74.9983 3.88625C65.3977 3.88625 56.0852 5.76675 47.3185 9.47482C30.2723 16.7025 16.7023 30.2726 9.47455 47.3192C5.76657 56.0861 3.88613 65.3995 3.88613 75.003C3.88613 84.6066 5.76657 93.9132 9.47455 102.68C16.7021 119.727 30.2721 133.297 47.3185 140.525C56.0852 144.233 65.3977 146.114 74.9983 146.114C84.5988 146.114 93.9113 144.233 102.678 140.525C119.724 133.297 133.294 119.727 140.522 102.68C144.23 93.9138 146.11 84.6004 146.11 75.0002C146.11 65.4 144.23 56.0861 140.522 47.3192C133.294 30.2726 119.724 16.7025 102.678 9.47482C93.9108 5.76675 84.5988 3.88625 74.9983 3.88625Z" fill="#EAEAEA"/>
<path d="M104.465 104.467C120.739 88.1931 120.739 61.8074 104.465 45.5332C88.1916 29.2589 61.8065 29.2589 45.5327 45.5332C29.2589 61.8074 29.2589 88.1931 45.5327 104.467C61.8065 120.742 88.1916 120.742 104.465 104.467Z" stroke="#EAEAEA" stroke-width="1.26997" stroke-miterlimit="10"/>
<path d="M101.996 101.998C116.906 87.0877 116.906 62.9129 101.996 48.0024C87.0854 33.0918 62.9113 33.0918 48.0011 48.0024C33.091 62.9129 33.091 87.0877 48.0011 101.998C62.9113 116.909 87.0854 116.909 101.996 101.998Z" fill="#EAEAEA"/>
<path d="M122.514 111.611C122.514 112.189 122.343 112.754 122.022 113.234C121.7 113.715 121.244 114.089 120.71 114.31C120.176 114.532 119.589 114.589 119.022 114.477C118.455 114.364 117.934 114.086 117.526 113.677C117.117 113.268 116.839 112.748 116.726 112.181C116.613 111.614 116.671 111.026 116.892 110.493C117.114 109.959 117.488 109.502 117.969 109.181C118.449 108.86 119.014 108.689 119.592 108.689C119.976 108.689 120.356 108.764 120.71 108.911C121.065 109.058 121.387 109.273 121.658 109.545C121.93 109.816 122.145 110.138 122.292 110.493C122.438 110.847 122.514 111.227 122.514 111.611Z" fill="#EAEAEA"/>
<path d="M33.3265 111.611C33.3265 112.189 33.1551 112.754 32.8341 113.234C32.513 113.715 32.0566 114.089 31.5227 114.31C30.9887 114.532 30.4012 114.589 29.8344 114.477C29.2676 114.364 28.7469 114.086 28.3383 113.677C27.9296 113.268 27.6513 112.748 27.5386 112.181C27.4258 111.614 27.4837 111.026 27.7049 110.493C27.926 109.959 28.3005 109.502 28.7811 109.181C29.2616 108.86 29.8265 108.689 30.4045 108.689C31.1794 108.689 31.9227 108.997 32.4707 109.545C33.0187 110.093 33.3265 110.836 33.3265 111.611Z" fill="#EAEAEA"/>
<path d="M56.715 119.097L54.3146 117.907L48.9191 118.55L47.7489 120.91L52.9216 120.296L53.0173 120.343L46.1462 134.203L48.6184 135.429L56.715 119.097Z" fill="#EAEAEA"/>
<path d="M62.0552 139.961C66.1827 140.791 69.2772 137.909 70.4547 132.054C71.6233 126.242 69.8503 122.372 65.7577 121.549C61.6563 120.724 58.5356 123.601 57.3565 129.42C56.1808 135.266 57.9207 139.121 62.0552 139.961ZM62.5237 137.631C60.1065 137.145 59.1371 134.426 60.0355 129.958C60.9391 125.51 62.8895 123.351 65.2979 123.835C67.6977 124.318 68.6706 127.064 67.7757 131.515C66.8773 135.983 64.9322 138.116 62.5237 137.631Z" fill="#EAEAEA"/>
<path d="M81.476 140.926C85.6659 140.514 87.7832 136.853 87.1983 130.909C86.6178 125.009 83.7913 121.826 79.6368 122.235C75.4735 122.645 73.3296 126.308 73.9022 132.217C74.4862 138.152 77.2764 141.33 81.476 140.926ZM81.2433 138.561C78.7896 138.802 77.0679 136.485 76.6216 131.95C76.186 127.431 77.4203 124.797 79.8652 124.556C82.3012 124.316 84.0343 126.659 84.4789 131.177C84.9251 135.712 83.6882 138.32 81.2433 138.561Z" fill="#EAEAEA"/>
<path d="M102.061 131.282C102.947 133.138 104.855 134.157 107.036 133.127C109.194 132.108 109.636 129.98 108.758 128.121L108.348 127.252C107.466 125.384 105.578 124.366 103.389 125.4C101.24 126.414 100.781 128.55 101.651 130.413L102.061 131.282ZM89.3174 125.762C90.1951 127.622 92.1112 128.637 94.2925 127.607C96.4417 126.592 96.8958 124.468 96.0062 122.605L95.5959 121.735C94.7224 119.864 92.8262 118.85 90.6449 119.88C88.5038 120.89 88.0255 123.026 88.907 124.893L89.3174 125.762ZM95.9057 137.968L97.8295 137.06L101.381 115.225L99.4573 116.133L95.9057 137.968ZM103.526 129.528C103.097 128.598 103.078 127.515 104.149 127.009C105.259 126.485 106.027 127.215 106.464 128.141L106.875 129.01C107.312 129.936 107.355 131.008 106.276 131.517C105.182 132.034 104.378 131.311 103.937 130.397L103.526 129.528ZM90.7905 124.004C90.3574 123.086 90.3343 121.995 91.4048 121.489C92.5156 120.965 93.2835 121.695 93.7204 122.621L94.1308 123.49C94.5677 124.416 94.6112 125.488 93.5326 125.997C92.4379 126.514 91.6378 125.799 91.2009 124.873L90.7905 124.004Z" fill="#EAEAEA"/>
<path d="M27.1254 88.3326L26.8393 85.5971L18.9339 86.4238L17.9887 77.3852L25.8942 76.5585L25.6072 73.8141L7.47683 75.7101L7.76381 78.4545L15.6427 77.6305L16.5879 86.6692L8.709 87.4931L8.99506 90.2286L27.1254 88.3326Z" fill="#EAEAEA"/>
<path d="M26.3224 68.8589L22.0623 66.0435L23.8247 59.1443L28.9109 58.7257L29.6335 55.897L10.3479 57.741L9.56142 60.8197L25.5998 71.6876L26.3224 68.8589ZM20.0184 64.6946L13.1463 60.1646L13.1815 60.0266L21.3842 59.3476L20.0184 64.6946Z" fill="#EAEAEA"/>
<path d="M15.7312 48.3717L18.6842 43.4878L32.325 51.736L33.7506 49.3783L20.1097 41.1301L23.0673 36.2386L21.0311 35.0074L13.6951 47.1404L15.7312 48.3717Z" fill="#EAEAEA"/>
<path d="M39.7724 42.041L40.7187 41.2302C42.8816 39.3769 42.5614 37.5531 41.9883 35.653L36.9692 20.1091L34.7793 21.9855L38.4052 32.7569L27.9187 27.8638L25.7017 29.7634L39.4695 35.9827L39.6962 36.6441C40.0185 37.6221 40.0627 38.604 39.0285 39.4901L38.1971 40.2025L39.7724 42.041Z" fill="#EAEAEA"/>
<path d="M50.7907 33.004L53.3328 31.954L50.8867 26.0305L54.342 24.6034C58.2498 22.9893 59.208 19.8296 57.9238 16.7198C56.643 13.6181 53.7545 12.0569 49.8386 13.6743L43.8329 16.1548L50.7907 33.004ZM49.9966 23.875L47.2753 17.2851L50.4674 15.9667C52.9848 14.9269 54.5771 15.8678 55.3653 17.7765C56.1535 19.6852 55.706 21.5168 53.2215 22.543L49.9966 23.875Z" fill="#EAEAEA"/>
<path d="M65.0431 27.7554L66.2455 22.7927L73.3334 22.1089L75.4534 26.7512L78.3595 26.4708L70.0794 8.95574L66.9164 9.26085L62.1371 28.0357L65.0431 27.7554ZM66.8207 20.4122L68.7494 12.4106L68.8911 12.3969L72.3138 19.8823L66.8207 20.4122Z" fill="#EAEAEA"/>
<path d="M79.1434 26.4375L79.9031 26.6333C83.9266 27.6703 85.6635 24.9322 87.3608 19.3111L89.3773 12.6305L95.4124 14.186L91.4381 29.6062L94.0715 30.2849L98.6288 12.6026L87.4478 9.72091L85.0049 17.9489C83.4954 23.0199 82.3909 24.7332 80.2622 24.2398L79.7397 24.1236L79.1434 26.4375Z" fill="#EAEAEA"/>
<path d="M105.568 24.4296L109.689 18.3406L107.404 16.7939L97.1872 31.8911L102.841 35.7179C106.202 37.993 109.393 37.4228 111.217 34.7124C113.05 32.0194 112.298 28.9848 108.937 26.7097L105.568 24.4296ZM104.271 26.3462L107.64 28.6263C109.593 29.9485 109.911 31.7974 108.988 33.1612C108.041 34.5618 106.091 35.1234 104.138 33.8012L100.769 31.5211L104.271 26.3462Z" fill="#EAEAEA"/>
<path d="M110.216 41.2283L111.837 43.4498L118.257 38.7631L123.615 46.1033L117.196 50.79L118.822 53.0187L133.546 42.2702L131.919 40.0415L125.521 44.7125L120.162 37.3723L126.561 32.7013L124.939 30.4799L110.216 41.2283Z" fill="#EAEAEA"/>
<path d="M131.638 56.1816L138.77 54.4906L138.135 51.814L120.453 56.0069L122.023 62.6291C122.957 66.5662 125.684 68.2997 128.851 67.5397C132.013 66.799 133.507 64.0644 132.574 60.1273L131.638 56.1816ZM142.191 68.9179L141.558 66.25L123.876 70.4428L124.509 73.1107L142.191 68.9179ZM129.394 56.7139L130.329 60.6596C130.872 62.9476 129.858 64.5194 128.261 64.8981C126.62 65.2871 124.811 64.3848 124.268 62.0968L123.333 58.1511L129.394 56.7139Z" fill="#EAEAEA"/>
<path d="M142.436 79.4954L124.443 76.5714L124.037 79.0665L135.747 90.357L135.72 90.5239L122.524 88.3794L122.083 91.0942L140.076 94.0182L140.484 91.5055L128.758 80.2034L128.785 80.0365L141.999 82.1838L142.436 79.4954Z" fill="#EAEAEA"/>
<path d="M84.2977 72.9064C83.6109 65.8818 80.2723 59.1898 75.1122 54.4557C74.0719 55.2623 73.1105 56.1658 72.2408 57.1539C67.2166 62.8633 64.7163 70.1881 65.2009 77.7792C65.6637 85.0288 68.7985 91.6913 74.0539 96.6521V69.4412C74.0539 69.2565 74.1272 69.0794 74.2578 68.9488C74.3884 68.8182 74.5655 68.7449 74.7501 68.7449C74.9348 68.7449 75.1119 68.8182 75.2425 68.9488C75.373 69.0794 75.4464 69.2565 75.4464 69.4412V96.0822C76.0877 95.5146 76.6931 94.9076 77.2589 94.2647C80.0021 91.1454 81.9934 87.6518 83.1781 83.8741C84.2882 80.3313 84.6691 76.6004 84.2977 72.9064Z" fill="#00632B"/>
<path d="M68.0622 91.4378L58.1937 79.8518C58.0742 79.7115 58.0154 79.5294 58.0301 79.3457C58.0448 79.1619 58.1319 78.9915 58.2723 78.872C58.4126 78.7525 58.5947 78.6936 58.7784 78.7084C58.9622 78.7231 59.1325 78.8102 59.252 78.9506L65.6459 86.4581C63.862 81.6605 63.3266 76.4882 64.0902 71.4269C59.164 67.3891 53.0816 65.1404 46.647 65.0151C46.3995 66.3081 46.2747 67.6216 46.2744 68.9382C46.2744 76.5437 49.236 83.6947 54.6139 89.0727C59.5239 93.9828 65.9116 96.8788 72.7722 97.3461C70.9582 95.5842 69.3755 93.5989 68.0622 91.4378Z" fill="#00632B"/>
<path d="M103.35 65.0135C96.7628 65.1416 90.5444 67.4972 85.5576 71.7178C85.6043 72.0653 85.6467 72.4135 85.6812 72.7633C86.1217 77.2103 85.5245 81.6989 83.9367 85.876L90.467 78.2081C90.5256 78.1367 90.5978 78.0777 90.6794 78.0345C90.7611 77.9914 90.8505 77.9649 90.9425 77.9567C91.0345 77.9484 91.1272 77.9586 91.2152 77.9866C91.3032 78.0147 91.3848 78.0599 91.4551 78.1198C91.5254 78.1797 91.5831 78.253 91.6248 78.3354C91.6664 78.4178 91.6913 78.5077 91.6978 78.5999C91.7043 78.692 91.6925 78.7845 91.6628 78.872C91.6332 78.9595 91.5865 79.0402 91.5253 79.1094L81.4034 90.9939C80.4869 92.4714 79.4485 93.8697 78.2992 95.1744C77.5994 95.9696 76.8431 96.7133 76.0361 97.3996C83.3474 97.2025 90.1913 94.2642 95.3831 89.0711C100.762 83.6931 103.723 76.5421 103.723 68.9366C103.723 67.62 103.598 66.3065 103.35 65.0135Z" fill="#00632B"/>
</svg>
