<svg width="150" height="150" viewBox="0 0 150 150" fill="none" xmlns="http://www.w3.org/2000/svg">
<path d="M150 75C150 116.421 116.421 149.999 75 149.999C33.5786 149.999 0 116.421 0 75C0 33.5792 33.5786 0 75 0C116.421 0 150 33.5786 150 75Z" fill="#00632B"/>
<path d="M75.0001 147.393C65.2272 147.393 55.7463 145.479 46.8212 141.703C29.4679 134.346 15.6537 120.532 8.2963 103.178C4.5214 94.2534 2.60693 84.7725 2.60693 75.0002C2.60693 65.2279 4.5214 55.7463 8.2963 46.8213C15.6537 29.468 29.4679 15.6538 46.8212 8.29636C55.7463 4.52146 65.2267 2.60699 75.0001 2.60699C84.7735 2.60699 94.2534 4.52146 103.179 8.29636C120.533 15.6535 134.347 29.4678 141.705 46.8213C145.48 55.7463 147.394 65.2273 147.394 75.0002C147.394 84.773 145.48 94.2534 141.705 103.178C134.348 120.533 120.533 134.348 103.179 141.705C94.2534 145.479 84.7724 147.393 75.0001 147.393ZM75.0001 3.88646C65.3994 3.88646 56.0866 5.76695 47.3197 9.475C30.2731 16.7027 16.7029 30.2727 9.47494 47.3192C5.76689 56.0861 3.8864 65.3994 3.8864 75.0029C3.8864 84.6065 5.76689 93.9131 9.47494 102.68C16.7027 119.727 30.273 133.297 47.3197 140.525C56.0866 144.233 65.3994 146.113 75.0001 146.113C84.6008 146.113 93.9136 144.233 102.68 140.525C119.727 133.297 133.298 119.727 140.525 102.68C144.233 93.9136 146.113 84.6003 146.113 75.0002C146.113 65.4 144.233 56.0861 140.525 47.3192C133.297 30.2727 119.727 16.7027 102.68 9.475C93.913 5.76695 84.6008 3.88646 75.0001 3.88646Z" fill="#EAEAEA"/>
<path d="M104.467 104.467C120.742 88.1929 120.742 61.8072 104.467 45.5331C88.1932 29.2589 61.8076 29.2589 45.5334 45.5331C29.2592 61.8072 29.2592 88.1929 45.5334 104.467C61.8076 120.741 88.1932 120.741 104.467 104.467Z" stroke="#EAEAEA" stroke-width="1.27" stroke-miterlimit="10"/>
<path d="M101.998 101.998C116.909 87.0874 116.909 62.9127 101.998 48.0022C87.0876 33.0918 62.9129 33.0918 48.0025 48.0022C33.092 62.9127 33.092 87.0874 48.0025 101.998C62.9129 116.908 87.0876 116.908 101.998 101.998Z" fill="#EAEAEA"/>
<path d="M133.779 80.5024C133.779 81.0804 133.607 81.6453 133.286 82.1259C132.965 82.6064 132.509 82.9809 131.975 83.2021C131.441 83.4233 130.853 83.4811 130.287 83.3684C129.72 83.2556 129.199 82.9773 128.79 82.5687C128.382 82.16 128.103 81.6393 127.991 81.0725C127.878 80.5057 127.936 79.9181 128.157 79.3842C128.378 78.8502 128.753 78.3939 129.233 78.0728C129.714 77.7517 130.279 77.5803 130.857 77.5803C131.24 77.5803 131.62 77.6559 131.975 77.8028C132.329 77.9496 132.652 78.1648 132.923 78.4362C133.194 78.7075 133.41 79.0297 133.556 79.3842C133.703 79.7387 133.779 80.1187 133.779 80.5024Z" fill="#EAEAEA"/>
<path d="M22.4853 80.5024C22.4853 81.0804 22.314 81.6453 21.9929 82.1259C21.6718 82.6064 21.2154 82.9809 20.6815 83.2021C20.1475 83.4233 19.56 83.4811 18.9931 83.3684C18.4263 83.2556 17.9056 82.9773 17.497 82.5687C17.0883 82.16 16.81 81.6393 16.6973 81.0725C16.5845 80.5057 16.6424 79.9181 16.8635 79.3842C17.0847 78.8502 17.4592 78.3939 17.9398 78.0728C18.4203 77.7517 18.9853 77.5803 19.5632 77.5803C20.3382 77.5805 21.0813 77.8884 21.6293 78.4364C22.1773 78.9843 22.4852 79.7275 22.4853 80.5024Z" fill="#EAEAEA"/>
<path d="M36.4016 110.349L38.0156 112.454C40.2838 110.614 40.3942 107.276 38.1411 104.338C35.915 101.435 32.5489 100.482 30.0554 102.394C28.0423 103.938 27.9676 106.284 29.1209 109.09L29.9654 111.156C30.7418 113.017 31.1486 114.601 29.863 115.587C28.4503 116.67 26.4834 116.036 25.0589 114.178C23.7698 112.497 23.4462 110.524 24.9239 109.189L23.2448 107C20.7326 109.15 20.6694 112.418 23.1555 115.66C25.7607 119.058 29.0481 119.644 31.4992 117.765C34.1057 115.766 33.3338 112.668 32.3777 110.484L31.6618 108.79C31.0848 107.438 30.4609 105.527 31.8508 104.473C33.0799 103.53 34.8523 103.955 36.2172 105.735C37.49 107.395 37.6175 109.17 36.4016 110.349Z" fill="#EAEAEA"/>
<path d="M50.6609 126.933C53.9152 122.095 52.9926 117.215 49.0783 114.582C45.1492 111.939 40.289 112.928 37.0346 117.766C33.7853 122.596 34.6955 127.478 38.6246 130.121C42.5389 132.755 47.4065 131.77 50.6609 126.933ZM48.4009 125.412C45.9216 129.098 42.6254 129.787 40.0257 128.039C37.4186 126.285 36.8227 122.977 39.302 119.291C41.7812 115.606 45.0701 114.911 47.6771 116.665C50.2768 118.414 50.8802 121.727 48.4009 125.412Z" fill="#EAEAEA"/>
<path d="M54.7273 118.988L58.0866 131.404L56.1544 138.274L58.7863 139.014L60.7185 132.144L70.0573 123.299L67.058 122.456L60.2488 129.126L60.0608 129.073L57.7267 119.831L54.7273 118.988Z" fill="#EAEAEA"/>
<path d="M79.2509 141.023L81.9722 140.623L80.8165 132.759L88.4782 131.633L88.1353 129.299L80.4735 130.425L79.666 124.93L88.1291 123.686L87.7849 121.343L76.6005 122.987L79.2509 141.023Z" fill="#EAEAEA"/>
<path d="M96.7555 137.514L99.2517 136.359L96.3549 130.099L99.7478 128.529C99.8043 128.503 99.8528 128.48 99.9093 128.454L106.167 133.16L109.01 131.844L102.244 126.844C103.924 125.155 104.153 122.999 103.125 120.777C101.716 117.732 98.8348 116.466 94.9976 118.241L89.1004 120.97L96.7555 137.514ZM95.3606 127.95L92.5871 121.956L95.7215 120.505C98.1854 119.365 99.7453 120.066 100.612 121.94C101.476 123.806 100.959 125.359 98.5273 126.485L95.3606 127.95Z" fill="#EAEAEA"/>
<path d="M113.809 128.416L122.461 120.802L120.899 119.026L114.309 124.824L110.626 120.639L116.688 115.304L115.131 113.535L109.069 118.87L105.403 114.704L111.912 108.976L110.35 107.2L101.778 114.743L113.809 128.416Z" fill="#EAEAEA"/>
<path d="M126.788 115.686L133.017 105.996L131.029 104.718L126.284 112.097L121.596 109.084L125.961 102.294L123.979 101.021L119.615 107.81L114.949 104.81L119.636 97.5204L117.647 96.2418L111.475 105.842L126.788 115.686Z" fill="#EAEAEA"/>
<path d="M22.6175 43.556L23.9046 41.0451C20.4639 39.9715 16.8931 41.5519 15.0984 45.0531C12.9464 49.2512 14.5355 53.9368 19.7159 56.5923C24.8488 59.2235 29.5677 57.8815 31.8213 53.4853C33.8393 49.5485 32.6985 45.4128 28.6033 43.3136L26.7576 42.3675L23.489 48.744L25.5089 49.7794L27.5635 45.7713C30.149 47.1667 30.9193 49.7421 29.5875 52.3402C28.1217 55.1998 24.8914 56.1745 20.9466 54.1524C17.0178 52.1385 15.9313 48.9309 17.3403 46.1823C18.4447 44.0277 20.38 43.1793 22.6175 43.556Z" fill="#EAEAEA"/>
<path d="M24.9697 30.1432L36.6366 44.18L38.6517 42.5051L30.2034 32.3408L30.3336 32.2326L42.9046 38.9355L44.5769 37.5455L40.2912 23.9677L40.4214 23.8595L48.864 34.017L50.8791 32.3421L39.2121 18.3053L36.6419 20.4416L41.2424 35.0673L41.0779 35.204L27.5399 28.0069L24.9697 30.1432Z" fill="#EAEAEA"/>
<path d="M66.6837 17.9169C65.0581 12.3179 60.7219 9.89714 56.1914 11.2125C51.6438 12.5329 49.2867 16.8969 50.9123 22.496C52.5355 28.0865 56.8656 30.5182 61.4132 29.1979C65.9438 27.8825 68.3093 23.516 66.6837 17.9169ZM64.068 18.6764C65.3064 22.9419 63.7223 25.9137 60.7133 26.7873C57.6958 27.6634 54.7751 25.9996 53.5366 21.734C52.2982 17.4685 53.8738 14.4992 56.8913 13.6231C59.9002 12.7495 62.8295 14.4108 64.068 18.6764Z" fill="#EAEAEA"/>
<path d="M78.9228 26.9403L81.6182 27.4629L83.1285 19.6731L90.7177 21.1445L91.1658 18.8329L83.5767 17.3615L84.632 11.9182L93.015 13.5435L93.4648 11.2232L82.3864 9.0753L78.9228 26.9403Z" fill="#EAEAEA"/>
<path d="M92.8357 29.9751L95.2563 31.2811L98.5321 25.2101L101.822 26.9854C101.877 27.0149 101.924 27.0403 101.979 27.0699L101.962 34.8993L104.719 36.3871L104.667 27.9741C107.026 28.3065 108.889 27.1976 110.051 25.0434C111.645 22.0901 110.932 19.0251 107.211 17.0174L101.492 13.9319L92.8357 29.9751ZM99.6564 23.1264L102.793 17.3138L105.832 18.9538C108.221 20.243 108.596 21.9114 107.615 23.7288C106.639 25.5384 105.085 26.0555 102.727 24.7833L99.6564 23.1264Z" fill="#EAEAEA"/>
<path d="M106.336 37.9762L114.346 46.2772L116.05 44.6331L109.949 38.3112L113.965 34.4357L119.578 40.2516L121.275 38.6136L115.663 32.7977L119.659 28.9408L125.686 35.1858L127.39 33.5416L119.453 25.3174L106.336 37.9762Z" fill="#EAEAEA"/>
<path d="M116.075 48.9286L121.266 59.1956L123.373 58.1301L119.42 50.3111L124.387 47.7996L128.024 54.9928L130.123 53.9314L126.486 46.7381L131.429 44.2387L135.335 51.9627L137.442 50.8972L132.299 40.7253L116.075 48.9286Z" fill="#EAEAEA"/>
<path d="M105.662 50.0501L43.635 97.662L45.0364 99.4878L107.063 51.8758L105.662 50.0501Z" fill="#00632B"/>
<path d="M57.6969 97.8801L58.6572 97.0808C66.2098 106.16 79.6941 107.399 88.774 99.8458C97.2495 92.7962 98.9768 80.4616 92.7639 71.3528L89.7471 66.9222L55.8755 92.7934C56.6298 94.3258 57.5636 95.7632 58.6572 97.0752L57.6969 97.8801Z" fill="#00632B"/>
<path d="M54.1625 87.8226L86.9296 62.7864L75.0896 45.4075L57.415 71.3538C54.7853 75.1917 53.4902 79.7875 53.7292 84.4337C53.7838 85.573 53.9287 86.7062 54.1625 87.8226Z" fill="#00632B"/>
</svg>
