<svg width="150" height="150" viewBox="0 0 150 150" fill="none" xmlns="http://www.w3.org/2000/svg">
<path d="M22.4857 74.7362C22.4857 75.3141 22.3143 75.879 21.9932 76.3596C21.6722 76.8401 21.2158 77.2146 20.6819 77.4358C20.1479 77.657 19.5604 77.7148 18.9936 77.6021C18.4268 77.4893 17.9061 77.211 17.4974 76.8024C17.0888 76.3937 16.8105 75.8731 16.6977 75.3062C16.585 74.7394 16.6429 74.1519 16.864 73.618C17.0852 73.084 17.4597 72.6277 17.9402 72.3066C18.4208 71.9855 18.9857 71.8141 19.5636 71.8141C20.3386 71.8141 21.0819 72.122 21.6298 72.67C22.1778 73.218 22.4857 73.9612 22.4857 74.7362Z" fill="#EAEAEA"/>
<path d="M149.997 75.0003C149.997 116.421 116.419 150 74.9983 150C33.5779 150 0 116.421 0 75.0003C0 33.5793 33.5779 0 74.9983 0C116.419 0 149.997 33.5787 149.997 75.0003Z" fill="#00632B"/>
<path d="M74.9987 147.393C65.2261 147.393 55.7453 145.479 46.8205 141.704C29.4676 134.346 15.6537 120.532 8.29642 103.179C4.5216 94.2535 2.60718 84.7725 2.60718 75.0002C2.60718 65.2279 4.5216 55.7463 8.29642 46.8212C15.6537 29.4679 29.4676 15.6536 46.8205 8.29615C55.7453 4.52124 65.2255 2.60677 74.9987 2.60677C84.7719 2.60677 94.2516 4.52124 103.177 8.29615C120.53 15.6533 134.345 29.4677 141.702 46.8212C145.477 55.7463 147.391 65.2273 147.391 75.0002C147.391 84.7731 145.477 94.2535 141.702 103.179C134.345 120.533 120.531 134.348 103.177 141.705C94.2516 145.479 84.7708 147.393 74.9987 147.393ZM74.9987 3.88624C65.3982 3.88624 56.0857 5.76673 47.319 9.4748C30.2728 16.7025 16.7028 30.2726 9.47504 47.3192C5.76706 56.0861 3.88662 65.3994 3.88662 75.003C3.88662 84.6065 5.76706 93.9132 9.47504 102.68C16.7026 119.727 30.2726 133.297 47.319 140.525C56.0857 144.233 65.3982 146.114 74.9987 146.114C84.5993 146.114 93.9118 144.233 102.678 140.525C119.725 133.297 133.295 119.727 140.522 102.68C144.23 93.9138 146.11 84.6004 146.11 75.0002C146.11 65.4 144.23 56.0861 140.522 47.3192C133.295 30.2726 119.725 16.7025 102.678 9.4748C93.9113 5.76673 84.5993 3.88624 74.9987 3.88624Z" fill="#EAEAEA"/>
<path d="M104.465 104.467C120.739 88.1931 120.739 61.8074 104.465 45.5332C88.1916 29.259 61.8065 29.259 45.5327 45.5332C29.2589 61.8074 29.2589 88.1931 45.5327 104.467C61.8065 120.742 88.1916 120.742 104.465 104.467Z" stroke="#EAEAEA" stroke-width="1.26997" stroke-miterlimit="10"/>
<path d="M101.996 101.998C116.906 87.0877 116.906 62.9129 101.996 48.0024C87.0854 33.0918 62.9113 33.0918 48.0011 48.0024C33.091 62.9129 33.091 87.0877 48.0011 101.998C62.9113 116.909 87.0854 116.909 101.996 101.998Z" fill="#EAEAEA"/>
<path d="M133.777 75.3573C133.777 75.9353 133.605 76.5002 133.284 76.9807C132.963 77.4613 132.507 77.8358 131.973 78.057C131.439 78.2781 130.851 78.336 130.285 78.2232C129.718 78.1105 129.197 77.8322 128.788 77.4235C128.38 77.0149 128.102 76.4942 127.989 75.9274C127.876 75.3606 127.934 74.7731 128.155 74.2391C128.376 73.7052 128.751 73.2488 129.231 72.9278C129.712 72.6067 130.277 72.4353 130.855 72.4353C131.238 72.4353 131.618 72.5109 131.973 72.6577C132.327 72.8046 132.65 73.0198 132.921 73.2911C133.192 73.5625 133.407 73.8846 133.554 74.2391C133.701 74.5936 133.777 74.9736 133.777 75.3573Z" fill="#EAEAEA"/>
<path d="M21.4857 75.3571C21.4857 75.935 21.3143 76.5 20.9932 76.9805C20.6722 77.461 20.2158 77.8355 19.6819 78.0567C19.1479 78.2779 18.5604 78.3357 17.9936 78.223C17.4268 78.1102 16.9061 77.832 16.4974 77.4233C16.0888 77.0146 15.8105 76.494 15.6977 75.9272C15.585 75.3603 15.6429 74.7728 15.864 74.2389C16.0852 73.7049 16.4597 73.2486 16.9402 72.9275C17.4208 72.6064 17.9857 72.4351 18.5636 72.4351C19.3386 72.4351 20.0819 72.7429 20.6298 73.2909C21.1778 73.8389 21.4857 74.5821 21.4857 75.3571Z" fill="#EAEAEA"/>
<path d="M33.3774 126.402L35.6799 127.907L40.0275 121.252L47.6354 126.223L43.2878 132.878L45.5977 134.387L55.5685 119.126L53.2586 117.617L48.9255 124.249L41.3177 119.278L45.6507 112.646L43.3482 111.141L33.3774 126.402Z" fill="#EAEAEA"/>
<path d="M54.2113 137.77L56.9976 133.491L63.9087 135.207L64.362 140.29L67.1955 140.993L65.2201 121.72L62.136 120.955L51.3778 137.067L54.2113 137.77ZM58.3326 131.438L62.8156 124.535L62.9538 124.57L63.6887 132.767L58.3326 131.438Z" fill="#EAEAEA"/>
<path d="M73.092 141.107L84.09 140.581L83.9768 138.216L75.7261 138.611L74.9679 122.767L72.2206 122.899L73.092 141.107Z" fill="#EAEAEA"/>
<path d="M92.883 138.597L92.7675 133.476L99.4611 130.984L102.714 134.936L105.458 133.914L92.912 119.075L89.925 120.187L90.1387 139.618L92.883 138.597ZM92.7106 131.02L92.5146 122.767L92.6485 122.717L97.8981 129.089L92.7106 131.02Z" fill="#EAEAEA"/>
<path d="M110.372 130.718L119.125 124.038L117.688 122.156L111.122 127.167L101.499 114.558L99.3127 116.227L110.372 130.718Z" fill="#EAEAEA"/>
<path d="M40.4345 40.5765L42.6621 38.9634L38.0003 32.5254L45.3608 27.1952L50.0227 33.6331L52.2576 32.0147L41.5661 17.25L39.3312 18.8684L43.9774 25.2847L36.6168 30.615L31.9706 24.1987L29.743 25.8119L40.4345 40.5765Z" fill="#EAEAEA"/>
<path d="M56.908 30.1793L57.2366 25.0836L64.1004 23.1878L66.9892 27.3949L69.8034 26.6176L58.6269 10.7928L55.564 11.6388L54.0938 30.9565L56.908 30.1793ZM57.3927 22.6395L57.9126 14.4252L58.0499 14.3873L62.7121 21.1703L57.3927 22.6395Z" fill="#EAEAEA"/>
<path d="M72.0492 26.8551L83.0498 27.3239L83.1506 24.9583L74.8979 24.6067L75.5732 8.7595L72.8253 8.64241L72.0492 26.8551Z" fill="#EAEAEA"/>
<path d="M88.0044 28.4772L91.3456 24.6097L97.968 27.2444L97.7309 32.3469L100.446 33.4271L101.09 14.0467L98.1349 12.871L85.2892 27.397L88.0044 28.4772ZM92.9469 22.7539L98.3252 16.5136L98.4577 16.5663L98.0792 24.7958L92.9469 22.7539Z" fill="#EAEAEA"/>
<path d="M102.1 34.9038L110.608 41.8927L112.111 40.0631L105.729 34.82L115.796 22.5631L113.671 20.8174L102.1 34.9038Z" fill="#EAEAEA"/>
<path d="M65.3813 66.8456C65.4355 66.8424 65.4882 66.8263 65.5351 66.7987C65.5819 66.7711 65.6214 66.7328 65.6505 66.6868C65.6796 66.6409 65.6973 66.5887 65.7022 66.5346C65.7071 66.4804 65.699 66.4259 65.6787 66.3755L63.4785 60.9C63.459 60.8512 63.4284 60.8075 63.3893 60.7723C63.3501 60.7372 63.3034 60.7115 63.2527 60.6973C63.202 60.6831 63.1488 60.6807 63.0971 60.6903C63.0453 60.7 62.9965 60.7214 62.9544 60.753C62.6146 61.0081 62.2269 61.2543 61.8175 61.5161C60.9464 62.0703 60.0463 62.6435 59.4514 63.391C59.4107 63.442 59.3855 63.5035 59.3787 63.5684C59.3719 63.6332 59.3838 63.6987 59.413 63.757C61.2683 67.5057 60.5598 73.3811 59.9906 78.1035C59.8586 79.1997 59.7338 80.2352 59.6497 81.1716C59.3489 84.5193 56.5984 86.0176 54.0061 86.0176C52.1296 86.0176 50.497 85.2206 49.74 83.9366C48.9324 82.563 49.1201 80.7304 50.2837 78.6377C50.3161 78.5797 50.331 78.5136 50.3264 78.4473C50.3219 78.381 50.2981 78.3175 50.258 78.2645C50.222 78.2168 50.1752 78.1781 50.1216 78.1516C50.0679 78.1251 50.0088 78.1115 49.9489 78.1119C49.1491 78.1119 45.8772 82.8744 45.7073 86.4393C45.6154 88.366 46.369 90.7456 50.4803 91.1378C50.8451 91.1729 51.23 91.1901 51.6249 91.1901C55.6103 91.1901 62.1178 89.2584 62.6118 84.0764C62.6842 83.3167 62.7232 82.084 62.7672 80.6563C62.9054 76.2169 63.1939 66.9776 65.3813 66.8456Z" fill="#00632B"/>
<path d="M104.696 81.754C102.901 81.5404 101.222 80.7538 99.9094 79.5109C99.3719 79.0341 98.8238 78.525 98.2941 78.032C96.7902 76.6361 95.239 75.1912 93.5178 74.0967C93.1317 73.8503 92.6825 73.721 92.2244 73.7246C89.8572 73.7246 87.3585 76.7832 87.1034 78.6319C86.9825 79.5087 87.3423 80.132 88.0915 80.3425C88.1587 80.3612 88.2301 80.3591 88.2961 80.3364C88.3621 80.3138 88.4197 80.2716 88.4613 80.2155C89.2138 79.1901 89.9391 78.6915 90.6765 78.6915C91.7053 78.6915 92.7932 79.6474 93.9411 80.6606C94.419 81.0806 94.907 81.5106 95.4239 81.9066C93.6493 82.1228 91.976 82.2364 90.5417 82.2364C87.7985 82.2364 84.4904 81.8259 84.3167 79.8713C83.9953 76.2774 84.6364 72.4513 85.2541 68.7515C85.5805 66.802 85.9175 64.7867 86.1024 62.8555C86.1085 62.792 86.0968 62.7281 86.0685 62.6709C86.0403 62.6137 85.9967 62.5655 85.9426 62.5318C85.8886 62.498 85.8261 62.4799 85.7624 62.4797C85.6986 62.4794 85.636 62.4969 85.5816 62.5302C82.1159 64.6435 80.9061 67.7996 79.6256 71.14C78.7594 73.4004 77.8666 75.7304 76.2228 77.9529C75.2704 71.2642 72.726 66.1759 68.461 62.4166C68.4161 62.3772 68.3617 62.3503 68.3032 62.3384C68.2447 62.3264 68.1841 62.3299 68.1274 62.3485C68.0707 62.3672 68.0198 62.4002 67.9798 62.4445C67.9397 62.4887 67.9119 62.5427 67.899 62.6009C67.7642 63.2137 67.5993 63.8292 67.4394 64.4224C66.619 67.4665 65.8442 70.3418 69.4346 72.5042C69.4843 72.5343 69.5408 72.5512 69.5989 72.5535C69.6569 72.5557 69.7146 72.5431 69.7665 72.517C69.8183 72.4908 69.8627 72.4518 69.8953 72.4038C69.928 72.3558 69.9479 72.3002 69.9532 72.2424L69.9922 71.8307C72.0487 74.8108 73.1855 77.4784 73.7325 80.5759C72.7794 81.4115 71.3825 82.1456 70.0301 82.8597C68.3295 83.7554 66.5716 84.6817 65.6258 85.8414C65.5743 85.9048 65.547 85.9845 65.5489 86.0662C65.5509 86.1479 65.5819 86.2262 65.6364 86.287C66.9259 87.7292 68.3273 88.4594 69.8011 88.4594C74.9156 88.4594 79.493 79.7755 81.5823 75.1082L81.5523 75.3021C80.7674 80.3542 79.9553 85.5791 86.1709 87.2139C86.1945 87.2206 86.2188 87.2241 86.2433 87.2245C86.8059 87.249 87.4247 87.2613 88.0815 87.2613C90.5779 87.2613 103.114 87.0178 104.971 82.2197C104.99 82.1711 104.997 82.1188 104.993 82.0668C104.988 82.0149 104.972 81.9646 104.945 81.9199C104.918 81.8752 104.882 81.8373 104.838 81.809C104.794 81.7807 104.744 81.7629 104.692 81.7568L104.696 81.754Z" fill="#00632B"/>
</svg>
