<svg width="80" height="80" viewBox="0 0 80 80" fill="none" xmlns="http://www.w3.org/2000/svg">
<path d="M79.3106 38.336L68.973 27.9987V13.3795C68.973 12.0802 67.9196 11.0265 66.6201 11.0265H52.0006L41.6637 0.689173C41.2226 0.247999 40.624 0 39.9997 0C39.3755 0 38.7772 0.247999 38.336 0.689173L27.9989 11.0268H13.3792C12.0799 11.0268 11.0262 12.0804 11.0262 13.3797V27.9989L0.689114 38.336C-0.229705 39.2549 -0.229705 40.7447 0.689114 41.6638L11.0262 52.0011V66.6204C11.0262 67.9196 12.0799 68.9733 13.3792 68.9733H27.9991L38.3362 79.3109C38.7774 79.7521 39.376 80.0001 40 80.0001C40.624 80.0001 41.2226 79.7521 41.6637 79.3109L52.0009 68.9733H66.6203C67.9198 68.9733 68.9732 67.9196 68.9732 66.6204V52.0011L79.3108 41.6638C79.752 41.2224 80 40.624 80 40C80 39.376 79.7518 38.7774 79.3106 38.336ZM64.9563 49.3623C64.5151 49.8037 64.2671 50.4021 64.2671 51.0261V64.267H51.026C50.402 64.267 49.8034 64.515 49.3623 64.9561L39.9997 74.3191L30.6374 64.9564C30.1963 64.5152 29.5977 64.2672 28.9737 64.2672H15.7321V51.0263C15.7321 50.4023 15.4841 49.804 15.0429 49.3626L5.68038 39.9998L15.0429 30.6373C15.4841 30.1958 15.7321 29.5975 15.7321 28.9735V15.7324H28.9737C29.5977 15.7324 30.1963 15.4844 30.6374 15.0432L39.9997 5.68068L49.362 15.0435C49.8032 15.4846 50.4018 15.7326 51.0258 15.7326H64.2669V28.9735C64.2669 29.5975 64.5149 30.1958 64.9561 30.6373L74.3191 39.9998L64.9563 49.3623Z" fill="#EAEAEA"/>
<path d="M34.0773 27.2318C34.1531 27.2274 34.2215 27.1867 34.262 27.1227C34.3025 27.0589 34.3098 26.9794 34.2813 26.9093L32.7717 23.1526C32.7446 23.0848 32.6876 23.0335 32.6168 23.0137C32.546 22.9937 32.4712 23.0081 32.4124 23.0519C32.1789 23.2269 31.9133 23.3961 31.6321 23.5754C31.0347 23.9556 30.4171 24.3488 30.0091 24.8615C29.9521 24.933 29.9415 25.0309 29.9825 25.1126C31.2554 27.6843 30.7693 31.7153 30.3787 34.9549C30.2881 35.7071 30.2027 36.4177 30.1448 37.06C29.9385 39.3567 28.0517 40.3847 26.2731 40.3847C24.9858 40.3847 23.8642 39.8377 23.3463 38.9567C22.7922 38.0144 22.9211 36.7572 23.7195 35.3217C23.7649 35.2403 23.758 35.1398 23.7016 35.0654C23.6515 34.9991 23.5743 34.961 23.4898 34.961C22.9411 34.961 20.6962 38.228 20.5795 40.6739C20.5164 41.9958 21.0336 43.628 23.8543 43.8972C24.1044 43.9212 24.3686 43.9332 24.6397 43.9332C27.3736 43.9332 31.8382 42.608 32.1773 39.0527C32.2269 38.5315 32.2531 37.6859 32.2839 36.7066C32.3785 33.6607 32.5764 27.3222 34.0773 27.2318Z" fill="#EAEAEA"/>
<path d="M61.0486 37.4596C59.7978 37.3036 58.6948 36.7874 57.7651 35.9208C57.3962 35.5938 57.0202 35.2444 56.6562 34.906C55.6259 33.9484 54.5602 32.958 53.3795 32.2063C53.1134 32.0369 52.8153 31.951 52.4922 31.951C50.8682 31.951 49.1539 34.0493 48.9788 35.3178C48.896 35.9192 49.1428 36.3467 49.6567 36.4914C49.7508 36.5173 49.852 36.4832 49.9104 36.4041C50.4268 35.7006 50.9242 35.3585 51.4301 35.3585C52.136 35.3585 52.8809 36.0145 53.6701 36.7093C53.9979 36.9975 54.3327 37.2926 54.687 37.5644C53.4696 37.7126 52.3216 37.7907 51.3379 37.7907C49.4555 37.7907 47.1861 37.5091 47.0668 36.1681C46.8466 33.7023 47.2861 31.0776 47.7101 28.5392C47.9339 27.2021 48.1652 25.8192 48.292 24.4945C48.3002 24.4058 48.2579 24.32 48.1826 24.2727C48.1068 24.2256 48.0111 24.2254 47.9348 24.2712C45.5572 25.7211 44.7271 27.8861 43.8485 30.178C43.2544 31.7286 42.6417 33.3272 41.5139 34.8519C40.8605 30.263 39.1151 26.7724 36.189 24.1934C36.1264 24.1383 36.0387 24.12 35.9601 24.1465C35.881 24.1722 35.8212 24.2385 35.8034 24.3197C35.7109 24.7416 35.598 25.1625 35.4881 25.5694C34.925 27.6576 34.3935 29.6303 36.857 31.1138C36.9259 31.1557 37.0118 31.1587 37.0845 31.1225C37.1568 31.086 37.205 31.015 37.2128 30.9343L37.2394 30.6519C38.6502 32.6964 39.4302 34.5263 39.8055 36.65C39.1516 37.2218 38.1932 37.7267 37.2655 38.2154C36.0987 38.83 34.8928 39.4653 34.2438 40.261C34.1707 40.3507 34.174 40.4803 34.2511 40.5667C35.1358 41.5561 36.0972 42.058 37.1083 42.058C40.617 42.058 43.7572 36.1004 45.1911 32.8983C45.1843 32.9427 45.1772 32.9872 45.1704 33.0312C44.6318 36.4975 44.0749 40.0818 48.3391 41.2034C48.3551 41.2079 48.3718 41.2102 48.3887 41.2109C48.7748 41.2274 49.1993 41.2359 49.6511 41.2359H49.6515C51.3642 41.2359 59.9644 41.069 61.2388 37.7773C61.2649 37.7098 61.2585 37.634 61.2214 37.5719C61.1842 37.5102 61.1204 37.4686 61.0486 37.4596Z" fill="#EAEAEA"/>
<path d="M30.0907 48.7284H27.9436V45.7778H26.4119V53.154H27.9436V50.0524H30.0907V53.154H31.6224V45.7778H30.0907V48.7284Z" fill="#EAEAEA"/>
<path d="M34.13 45.7588L32.2858 53.154H33.9309L34.2811 51.5653H36.0872L36.4465 53.154H38.0824L36.2387 45.7588H34.13ZM34.5745 50.2414L35.1796 47.5273L35.7848 50.2414H34.5745Z" fill="#EAEAEA"/>
<path d="M40.2774 45.7778H38.7456V53.154H43.0011V51.8303H40.2774V45.7778Z" fill="#EAEAEA"/>
<path d="M45.1199 45.7588L43.2756 53.154H44.9213L45.2709 51.5653H47.0775L47.4368 53.154H49.0728L47.2286 45.7588H45.1199ZM45.5643 50.2414L46.1695 47.5273L46.7747 50.2414H45.5643Z" fill="#EAEAEA"/>
<path d="M51.2683 45.7778H49.7361V53.154H53.9916V51.8303H51.2683V45.7778Z" fill="#EAEAEA"/>
</svg>
