<svg width="102" height="70" viewBox="0 0 102 70" fill="none" xmlns="http://www.w3.org/2000/svg">
<path fill-rule="evenodd" clip-rule="evenodd" d="M45.6743 0.160877C37.45 0.824461 28.746 3.87913 22.4787 8.30132C19.6553 10.2935 16.3079 13.4005 14.683 15.5371L14.3146 16.0217L15.1339 16.0178C15.8805 16.0145 16.026 15.9297 16.7715 15.0646C18.0408 13.5915 20.5037 11.3595 22.4427 9.92504C23.4119 9.20789 24.2789 8.62113 24.3692 8.62113C24.4998 8.62113 26.8933 9.70831 28.5429 10.5171C28.7693 10.6279 28.4687 11.0538 27.2473 12.3524C25.8329 13.8565 24.3266 15.7826 24.3266 16.0872C24.3266 16.2848 25.296 16.2041 25.6438 15.9776C25.8302 15.8566 26.6974 14.9645 27.5714 13.9953C28.4454 13.0262 29.4322 12.0271 29.7641 11.7754L30.3681 11.3174L33.7598 12.3404C35.6253 12.9032 37.2181 13.3869 37.2993 13.4153C37.3807 13.4435 37.1689 14.0135 36.8291 14.6818C36.4891 15.3504 36.2515 15.9516 36.3008 16.0182C36.3505 16.0846 36.6856 16.1033 37.0455 16.0592C37.6145 15.9898 37.7807 15.8319 38.3136 14.8552C38.6509 14.2369 38.971 13.731 39.025 13.731C39.0791 13.731 40.2291 13.8882 41.5807 14.0803C42.9323 14.2723 45.0914 14.4825 46.3787 14.5476C47.6661 14.6126 48.7775 14.7439 48.8483 14.839C48.9193 14.9343 48.9991 15.18 49.0258 15.3849C49.0527 15.5898 49.0866 15.8169 49.1014 15.8895C49.1165 15.9621 49.4624 16.0217 49.8705 16.0217C50.5754 16.0217 50.6125 15.9912 50.6125 15.4129C50.6125 14.7155 50.6292 14.7107 53.7922 14.518C55.3853 14.4209 57.5895 14.153 59.6646 13.8043C60.3283 13.693 60.359 13.7166 61.035 14.8561C61.678 15.9396 61.7757 16.0217 62.4231 16.0217C62.8061 16.0217 63.1194 15.9523 63.1194 15.8673C63.1194 15.7826 62.881 15.2649 62.5895 14.7171C62.298 14.1693 62.0595 13.6193 62.0595 13.4951C62.0595 13.3709 62.648 13.1226 63.367 12.9436C64.0863 12.7646 65.6361 12.3133 66.8113 11.9412C67.9864 11.5688 69.0546 11.2642 69.1849 11.2642C69.4567 11.2642 71.5085 13.297 72.8751 14.9204C73.7379 15.9454 73.8583 16.0217 74.6138 16.0217H75.4255L74.1167 14.3918C73.397 13.4953 72.3929 12.3528 71.8856 11.8529C71.3781 11.3528 70.9628 10.8316 70.9628 10.6945C70.9628 10.417 74.4476 8.62113 74.986 8.62113C75.855 8.62113 81.484 13.3321 83.1116 15.4214C83.5023 15.923 83.7017 16.0176 84.3707 16.0196C84.8081 16.0206 85.1657 15.9671 85.1657 15.9005C85.1657 15.5401 81.7807 12.1367 79.6618 10.3663C73.3298 5.07608 65.6268 1.77385 56.6845 0.516457C53.7984 0.110483 48.4424 -0.0623728 45.6743 0.160877ZM55.2044 1.50672C58.3057 1.86036 58.8211 1.99992 58.4387 2.38316C58.0001 2.82226 55.8641 3.64971 54.0676 4.0763C52.7384 4.39206 51.8742 4.46888 49.6585 4.46818C46.4506 4.46747 44.9534 4.2007 42.5592 3.20339C40.4928 2.34263 40.411 2.03498 42.1755 1.76204C46.0521 1.1626 51.2866 1.06005 55.2044 1.50672ZM64.8249 3.59579C67.0956 4.32123 68.8366 5.04965 71.1824 6.25577C73.8644 7.63474 73.8466 7.55333 71.6954 8.6058C70.6877 9.09882 69.7681 9.50215 69.6519 9.50215C69.5358 9.50215 68.7101 8.95909 67.817 8.29515C65.4479 6.53435 63.0961 5.02974 61.4157 4.2C60.6039 3.79913 59.9397 3.37078 59.9397 3.24832C59.9397 3.12586 60.1542 2.90719 60.4167 2.76235C60.9699 2.45699 61.6807 2.59126 64.8249 3.59579ZM39.1181 2.90455C39.3774 3.05538 39.5893 3.24867 39.5893 3.33396C39.5893 3.41924 38.7548 3.93939 37.7345 4.48985C35.6825 5.59694 33.6981 6.87565 31.3835 8.58219L29.8551 9.70901L27.9918 8.83592C26.9668 8.35576 26.0994 7.8409 26.0638 7.692C25.9338 7.14771 31.4668 4.60421 35.7107 3.25713C37.8392 2.58157 38.4542 2.51796 39.1181 2.90455ZM60.0826 4.95309C62.5778 6.13454 67.7831 9.57192 67.7831 10.0383C67.7831 10.2766 66.4433 10.7995 64.2854 11.4036C61.0435 12.311 61.236 12.3325 60.2789 10.9557C59.8242 10.3016 58.608 8.71416 57.5761 7.42805C56.5444 6.14194 55.7 5.05 55.7 5.00172C55.7 4.82094 57.9388 4.07225 58.2438 4.15101C58.4187 4.19612 59.2461 4.55716 60.0826 4.95309ZM42.6362 4.57672C43.1757 4.77513 43.617 5.01106 43.617 5.1011C43.617 5.19114 43.058 5.9208 42.3748 6.72271C41.6914 7.52461 40.6249 8.89424 40.0046 9.76645C39.3843 10.6387 38.7427 11.5382 38.579 11.7655C38.3242 12.1191 38.1727 12.1618 37.5291 12.0615C36.0961 11.8381 31.9232 10.5127 31.7977 10.2411C31.6633 9.94988 32.5055 9.27431 35.4131 7.34136C37.4193 6.00767 40.7883 4.21603 41.2901 4.21603C41.491 4.21603 42.0967 4.37832 42.6362 4.57672ZM48.3336 5.73879L48.9166 5.82988V9.60417V13.3786L47.2737 13.3767C45.7067 13.3749 40.277 12.7755 40.0396 12.5781C39.7157 12.3089 41.571 9.65932 43.9965 6.92763L45.3301 5.42585L46.5403 5.53668C47.2061 5.59765 48.0131 5.68857 48.3336 5.73879ZM55.4563 7.03529C56.9834 8.73443 59.5997 12.3103 59.4233 12.4569C59.1585 12.677 55.2195 13.2017 52.9973 13.3129L50.6125 13.4324V9.63712V5.84187L51.8314 5.6646C53.9183 5.36118 53.9688 5.38021 55.4563 7.03529ZM36.7977 19.3736C32.8629 19.9255 29.3911 21.5987 27.7573 23.7303C26.6336 25.1959 26.1725 26.6265 26.1528 28.7084C26.1405 29.9961 26.2463 30.8596 26.5009 31.5491C27.3102 33.7422 29.8765 36.0284 32.9119 37.2608C33.728 37.5922 37.1144 38.5419 40.4373 39.3715C48.2798 41.3293 49.1193 41.582 49.614 42.1328C50.2175 42.8047 49.8298 43.2549 48.3286 43.6256C46.6891 44.0302 43.128 44.0328 41.2852 43.6305C38.2912 42.977 35.599 41.5249 34.361 39.8959L33.7598 39.1051L30.1031 39.1047L26.4464 39.1044V44.831V50.5576H30.4741H34.5018V49.5004C34.5018 48.833 34.5899 48.4432 34.7409 48.4432C34.8725 48.4432 35.4686 48.6735 36.0658 48.9551C37.6255 49.6904 40.4318 50.4646 42.8323 50.8218C44.4283 51.0593 45.5815 51.1095 47.8139 51.0381C51.1144 50.933 52.9021 50.5823 55.3397 49.5619C58.1044 48.4046 60.3726 45.9316 61.01 43.3796C61.371 41.9348 61.1643 39.4279 60.5852 38.2271C59.5007 35.9782 56.9115 33.7476 54.1102 32.649C53.294 32.3288 49.4839 31.3104 45.6432 30.3856C41.8022 29.4611 38.4347 28.5818 38.1593 28.4319C37.0714 27.8393 37.2039 26.8225 38.4319 26.3381C39.2502 26.0153 41.9773 25.9714 43.6596 26.254C47.1465 26.8397 49.7359 27.9318 51.4928 29.5577L52.4792 30.4704H56.3154H60.1517V25.2724V20.0744H56.124H52.0963V20.8673C52.0963 21.321 51.9978 21.6602 51.8657 21.6602C51.7389 21.6602 51.0474 21.3887 50.3288 21.0569C48.6118 20.2638 46.8531 19.7882 44.43 19.4615C42.3555 19.1819 38.4828 19.1373 36.7977 19.3736ZM77.4612 19.4748C72.6307 20.2002 68.4631 22.0352 66.1983 24.4338C63.4983 27.2931 62.4286 30.3966 62.4167 35.4041C62.4097 38.4657 62.7288 40.0672 63.7859 42.2761C65.2916 45.4222 67.6415 47.4894 71.5988 49.1491C74.8478 50.5117 78.0242 51.0863 82.3084 51.0863C87.2554 51.0863 91.7361 50.1127 94.9417 48.3414C99.5661 45.7859 101.979 41.3034 102 35.2279C102.012 31.692 101.239 28.7466 99.6248 26.1753C97.632 23.0015 92.9925 20.5484 87.0932 19.5491C84.5764 19.1227 80.038 19.0878 77.4612 19.4748ZM11.9786 19.5017L0.372493 19.5488V23.2476V26.9463H3.12827H5.88405V34.9636V42.9809H3.12403H0.364014L0.421249 46.7252L0.478485 50.4695L12.2965 50.515L24.1146 50.5606V46.7707V42.9809H21.3567H18.5988L18.6539 35.0076L18.709 27.0344L21.4118 26.9851L24.1146 26.9358V23.1527C24.1146 20.221 24.055 19.3791 23.8496 19.412C23.704 19.4355 18.362 19.4758 11.9786 19.5017ZM85.4618 27.3558C86.8821 27.8964 87.6037 28.6766 88.0238 30.1265C88.7493 32.6289 88.6204 39.3789 87.8167 40.9803C86.9739 42.6598 85.2026 43.421 82.1979 43.3948C78.9368 43.3662 77.4336 42.5661 76.624 40.428C76.1979 39.3023 76.1566 38.8323 76.1594 35.1398C76.1628 30.7136 76.3487 29.5751 77.2437 28.5003C78.5847 26.8898 82.7228 26.3136 85.4618 27.3558ZM36.8005 53.8738C36.4876 53.9806 36.5169 54.117 37.0701 55.1273C37.4114 55.7509 37.6609 56.3354 37.6247 56.4261C37.5882 56.517 36.4174 56.9302 35.0232 57.3445C33.6288 57.7586 32.0232 58.2445 31.4553 58.4243L30.4228 58.7511L29.2713 57.6992C28.6379 57.1205 27.624 56.033 27.0181 55.2822C25.9716 53.9859 25.8762 53.9171 25.1141 53.9115C24.3482 53.9059 24.3232 53.9237 24.5625 54.302C25.0094 55.0084 26.0744 56.2534 27.4412 57.6675C28.1766 58.4281 28.7782 59.1541 28.7782 59.2806C28.7782 59.4071 27.8605 59.9572 26.7391 60.5029C24.7312 61.4802 24.6914 61.4907 24.1424 61.1991C23.1505 60.6724 18.4926 56.6765 17.2323 55.2711C16.0679 53.9725 15.967 53.9055 15.1755 53.9055H14.343L14.9938 54.6917C18.1625 58.5199 23.0695 62.383 27.9303 64.8761C31.6807 66.7999 36.8545 68.4848 41.6574 69.3466C45.1299 69.9697 51.9005 70.1305 55.742 69.681C63.5108 68.7722 70.7156 66.1804 76.5778 62.1855C79.351 60.2957 83.3912 56.5817 85.058 54.3901L85.4264 53.9055L84.6071 53.9166C83.8334 53.927 83.7229 54.0028 82.6219 55.2794C81.2173 56.9077 76.0156 61.3061 75.4944 61.3061C75.1162 61.3061 70.9628 59.4251 70.9628 59.2538C70.9628 59.202 71.383 58.7506 71.8964 58.2505C72.9245 57.2495 75.4145 54.2755 75.4145 54.0488C75.4145 53.97 75.0853 53.9055 74.6827 53.9055C74.0465 53.9055 73.8621 54.0148 73.2709 54.7425C72.3893 55.8279 69.6576 58.6637 69.497 58.6605C69.4287 58.6593 68.0968 58.2629 66.5368 57.7795C64.9771 57.2964 63.624 56.901 63.5299 56.901C63.4359 56.901 63.1125 56.8231 62.811 56.7278C62.2647 56.5551 62.2639 56.5523 62.605 55.8908C62.7932 55.5257 63.0773 54.9298 63.236 54.5663L63.5246 53.9055H62.79C62.096 53.9055 62.0178 53.9693 61.3687 55.0662C60.685 56.2212 60.678 56.2263 59.9397 56.1181C57.4949 55.7595 53.559 55.3167 52.8118 55.316C51.3955 55.3146 50.5913 55.1271 50.6284 54.8071C50.7193 54.0204 50.6207 53.9055 49.8538 53.9055C49.1375 53.9055 49.1019 53.9328 49.2174 54.3901C49.2846 54.6565 49.2685 54.9617 49.1811 55.0681C49.094 55.1745 48.1164 55.3102 47.0087 55.3692C45.1918 55.4663 41.4448 55.8668 39.9711 56.1214C39.4547 56.2106 39.346 56.1329 38.851 55.3211C38.3062 54.4272 37.6143 53.718 37.3105 53.7416C37.2232 53.7485 36.9936 53.8079 36.8005 53.8738ZM49.2045 57.2093C49.2768 57.5728 49.337 59.276 49.3382 60.9944C49.3408 64.5396 49.5657 64.1548 47.3526 64.3942C46.7838 64.4557 46.1971 64.5449 46.0485 64.5923C45.5955 64.7368 42.0977 60.6705 40.6599 58.3279C40.2935 57.7311 40.248 57.5269 40.4568 57.4195C41.0734 57.1027 45.2516 56.6117 47.6699 56.5717L49.073 56.5486L49.2045 57.2093ZM55.7422 56.8155C58.2027 57.0895 59.679 57.3304 59.8695 57.4886C60.0921 57.6738 56.2188 62.776 54.8059 64.1583L54.3222 64.6317L52.6047 64.4323L50.8874 64.233L50.7502 61.4705C50.675 59.9511 50.6744 58.222 50.749 57.6282L50.8849 56.5486H52.1156C52.7927 56.5486 54.4245 56.6687 55.7422 56.8155ZM39.9889 59.8083C40.7614 60.8744 41.9845 62.46 42.707 63.3321C43.4294 64.2041 43.9536 64.969 43.8718 65.0319C43.79 65.0946 43.2087 65.3274 42.5802 65.5491L41.4374 65.9522L40.3186 65.4492C38.0232 64.4171 32.4258 60.7991 31.9279 60.026C31.7589 59.7636 31.8878 59.6566 32.7436 59.349C34.3419 58.7742 37.9692 57.779 38.2918 57.8268C38.4527 57.8507 39.2162 58.7423 39.9889 59.8083ZM64.3746 58.4332C66.6663 59.0482 67.9951 59.5557 67.9951 59.8157C67.9951 60.3845 63.1655 63.6224 60.0249 65.1595L58.5201 65.8958L57.3221 65.5147C56.6631 65.3052 56.124 65.067 56.124 64.9856C56.124 64.9043 56.9681 63.7853 57.9999 62.4991C59.0316 61.213 60.2301 59.6286 60.6634 58.9781C61.5662 57.6224 61.4285 57.6426 64.3746 58.4332ZM31.1215 61.0641C32.3887 62.1728 35.4243 64.2064 37.6529 65.4396C38.8345 66.0935 39.8013 66.6977 39.8013 66.7825C39.8013 66.8672 39.5618 67.0669 39.269 67.2263C38.7628 67.5021 38.6346 67.4887 36.6722 66.9568C33.0202 65.9668 26.2319 62.9527 26.2359 62.3228C26.2374 62.0706 29.5519 60.4272 30.0616 60.4259C30.2426 60.4254 30.7195 60.7126 31.1215 61.0641ZM71.6403 61.0636C74.1455 62.2607 74.0209 62.1645 73.5863 62.5636C72.5421 63.5227 66.7382 66.0104 63.3516 66.9502C61.6589 67.42 61.2847 67.4709 60.872 67.2875C59.959 66.8813 60.1055 66.6287 61.8018 65.6828C64.1531 64.3718 65.7326 63.3444 67.7831 61.7919C68.7741 61.0414 69.7467 60.427 69.9445 60.4263C70.1422 60.4256 70.9054 60.7124 71.6403 61.0636ZM54.0042 65.8091C55.6825 66.1369 58.8798 67.3923 58.8798 67.7238C58.8798 68.0513 58.5972 68.1216 56.0797 68.4201C52.5506 68.8386 50.0482 68.9193 47.1247 68.7086C44.3766 68.5107 41.3357 68.1035 41.0951 67.9016C40.6662 67.5412 43.8909 66.2276 46.2668 65.7947C48.0506 65.4698 52.306 65.4777 54.0042 65.8091Z" fill="#EAEAEA"/>
</svg>
