<svg width="84" height="64" viewBox="0 0 84 64" fill="none" xmlns="http://www.w3.org/2000/svg">
<path fill-rule="evenodd" clip-rule="evenodd" d="M40.9959 0.0839901C29.5566 0.594322 19.318 4.015 11.7818 9.84429C10.4632 10.8643 7.54871 13.7167 6.57485 14.9406C4.01569 18.1564 2.19041 21.9075 1.31428 25.7514C0.468373 29.4627 0.467118 34.0929 1.3109 38.1914C3.51408 48.8938 11.4461 57.0011 23.7572 61.1337C28.2116 62.629 32.6301 63.4792 38.0987 63.8931C40.0086 64.0377 45.1072 64.035 47.1768 63.8883C56.5291 63.2252 65.2702 60.9833 73.566 57.1203L75.2803 56.322V49.9246V43.5271L74.5318 43.764C68.1772 45.7753 60.793 46.0844 55.1363 44.5759C50.3463 43.2985 46.8879 40.6784 45.3278 37.1449C44.0908 34.343 43.9524 30.4936 44.974 27.3002C46.1681 23.5671 48.969 20.8166 53.1644 19.2571C57.4192 17.6755 63.2779 17.4598 69.2926 18.6631C71.094 19.0235 72.8551 19.4824 74.2602 19.9576C74.7349 20.1181 75.159 20.2495 75.2025 20.2495C75.2461 20.2495 75.2705 17.5042 75.2568 14.1489L75.232 8.04833L73.4936 7.15325C65.0088 2.7843 56.0546 0.465845 46.1627 0.0765565C43.5367 -0.026726 43.4771 -0.0267249 40.9959 0.0839901ZM26.8476 12.574C29.5581 13.018 31.8452 14.1824 33.7596 16.0933C38.4712 20.7964 38.5051 28.1378 33.8365 32.804C31.6963 34.9431 29.044 36.1988 26.0635 36.4839C24.7132 36.6132 23.6889 36.5122 22.8639 36.1686L22.3568 35.9574V32.6336V29.3099L22.5741 29.3796C23.1482 29.5636 23.563 29.608 24.7268 29.6102C26.6671 29.6137 27.7578 29.2302 28.8855 28.1479C29.9257 27.1496 30.4103 25.9494 30.3988 24.4001C30.38 21.8521 28.7761 19.9409 26.2227 19.4238C25.3244 19.2418 24.765 19.2792 23.8354 19.5833C22.5745 19.9956 21.238 21.1516 20.6233 22.3616C20.0812 23.4286 20.1139 22.6776 20.0357 35.8866C19.9961 42.6024 19.9589 48.7301 19.953 49.5036L19.9425 50.9101L19.3226 50.8356C16.4392 50.4886 14.1961 48.8337 13.4709 46.5185C13.2836 45.9204 13.2787 45.6149 13.2787 34.3447C13.2787 24.6135 13.3011 22.6564 13.4205 21.9755C14.0367 18.4589 16.5449 15.2402 19.9575 13.5867C22.0473 12.5741 24.5777 12.2022 26.8476 12.574ZM65.8807 25.1396C65.845 25.1753 65.8158 26.6089 65.8158 28.3255V31.4465H68.1337H70.4515V35.1627V38.8789H75.0388H79.6262V35.1627V31.4465H81.6556H83.6849L83.6595 28.2852L83.634 25.124L74.7898 25.0994C69.9255 25.0858 65.9164 25.1039 65.8807 25.1396Z" fill="#EAEAEA"/>
</svg>
