<svg width="100" height="100" viewBox="0 0 100 100" fill="none" xmlns="http://www.w3.org/2000/svg">
<path fill-rule="evenodd" clip-rule="evenodd" d="M1.25415 50C1.25185 23.0783 23.0743 1.25404 49.9958 1.25404C76.9174 1.25404 98.7436 23.0783 98.7459 50C98.7482 76.9217 76.9257 98.746 50.0042 98.746C23.0826 98.746 1.25645 76.9217 1.25415 50ZM49.9957 0C22.3814 0 -0.0023601 22.3858 1.86646e-07 50C0.00236048 77.6142 22.39 100 50.0043 100C77.6186 100 100.002 77.6142 100 50C99.9977 22.3858 77.61 0 49.9957 0ZM46.8479 49.136V95.1274C23.3371 93.5072 4.76619 73.9222 4.76414 50C4.762 25.017 25.013 4.7642 49.996 4.7642C74.979 4.7642 95.2335 25.017 95.2356 50C95.2377 73.925 76.6657 93.5119 53.1512 95.128V49.136C56.4739 51.9698 61.2869 54.8769 67.5902 57.8573V52.5805C60.2607 46.3755 54.837 39.7796 51.3188 32.7928H48.6803C45.1621 39.7796 39.7384 46.3755 32.4089 52.5805V57.8573C38.7122 54.8769 43.5252 51.9698 46.8479 49.136Z" fill="#00632B"/>
</svg>
